<svg xmlns="http://www.w3.org/2000/svg" xmlns:xlink="http://www.w3.org/1999/xlink" width="500" zoomAndPan="magnify" viewBox="0 0 375 374.999991" height="500" preserveAspectRatio="xMidYMid meet" version="1.2"><defs><clipPath id="8bec1bb238"><path d="M 59 87.242188 L 106 87.242188 L 106 145 L 59 145 Z M 59 87.242188 "/></clipPath><clipPath id="70b6f4129c"><path d="M 0 119 L 162.75 119 L 162.75 252.242188 L 0 252.242188 Z M 0 119 "/></clipPath></defs><g id="2faa7aaf45"><rect x="0" width="375" y="0" height="374.999991" style="fill:#ffffff;fill-opacity:1;stroke:none;"/><rect x="0" width="375" y="0" height="374.999991" style="fill:#101828;fill-opacity:1;stroke:none;"/><path style=" stroke:none;fill-rule:nonzero;fill:#ffffff;fill-opacity:1;" d="M 118.015625 221.441406 L 111.910156 221.691406 C 109.878906 221.796875 107.84375 221.921875 105.808594 222.054688 L 99.710938 222.53125 L 93.617188 223.085938 L 87.535156 223.773438 L 81.464844 224.554688 L 75.398438 225.417969 C 73.382812 225.730469 71.363281 226.046875 69.351562 226.390625 L 63.320312 227.476562 L 57.300781 228.644531 L 51.296875 229.894531 L 45.3125 231.242188 L 39.355469 232.699219 L 38.855469 232.828125 L 39.214844 231.011719 L 40.539062 223.757812 L 41.734375 216.484375 L 42.820312 209.1875 L 43.78125 201.875 L 44.628906 194.546875 L 45.359375 187.207031 L 45.96875 179.859375 L 46.472656 172.5 L 46.839844 165.132812 L 47.105469 157.765625 L 47.226562 150.390625 L 47.230469 143.019531 L 47.132812 135.648438 L 46.933594 128.285156 C 46.886719 127.03125 46.828125 125.78125 46.761719 124.53125 L 62.5625 126.332031 L 82.105469 128.375 L 91.886719 129.320312 L 101.671875 130.234375 L 111.46875 131.074219 C 114.738281 131.324219 118.003906 131.597656 121.277344 131.816406 C 118.066406 131.132812 114.847656 130.507812 111.636719 129.859375 L 101.980469 128.003906 L 92.3125 126.21875 L 82.644531 124.464844 L 63.285156 121.113281 L 43.898438 117.941406 L 40.347656 117.359375 L 40.363281 121.125 C 40.375 123.550781 40.359375 125.980469 40.402344 128.402344 L 40.386719 135.679688 L 40.265625 142.957031 L 40.046875 150.226562 L 39.742188 157.492188 L 39.375 164.75 L 38.90625 172.007812 L 38.375 179.257812 L 37.738281 186.496094 L 37.027344 193.730469 L 36.226562 200.957031 L 35.339844 208.171875 L 34.375 215.375 L 33.3125 222.570312 L 32.183594 229.753906 L 30.949219 236.921875 L 29.992188 242.507812 L 35.328125 240.925781 L 41.121094 239.207031 L 46.9375 237.566406 L 52.773438 235.980469 L 58.628906 234.457031 L 64.503906 233.011719 L 70.402344 231.648438 C 72.375 231.230469 74.347656 230.785156 76.316406 230.335938 L 82.242188 229.078125 L 88.1875 227.898438 L 94.152344 226.792969 L 100.125 225.71875 L 106.121094 224.726562 C 108.121094 224.425781 110.125 224.117188 112.125 223.789062 L 118.148438 222.902344 L 124.179688 222.070312 L 130.226562 221.28125 C 126.160156 221.269531 122.085938 221.308594 118.015625 221.441406 Z M 118.015625 221.441406 "/><path style=" stroke:none;fill-rule:nonzero;fill:#ffffff;fill-opacity:1;" d="M 49.585938 160.484375 C 49.546875 162.386719 49.488281 164.289062 49.40625 166.191406 C 49.328125 168.09375 49.273438 169.996094 49.160156 171.894531 L 48.84375 177.597656 L 48.441406 183.289062 C 48.324219 185.1875 48.140625 187.082031 47.992188 188.976562 C 47.847656 190.875 47.675781 192.765625 47.460938 194.65625 C 47.25 196.542969 47.078125 198.433594 46.839844 200.320312 L 46.078125 205.96875 C 45.84375 207.851562 45.46875 209.714844 45.171875 211.585938 L 44.695312 214.390625 L 44.117188 217.171875 C 43.695312 219.019531 43.421875 220.902344 42.921875 222.726562 L 41.519531 228.226562 L 41.113281 229.820312 L 42.664062 229.359375 C 48.226562 227.699219 53.890625 226.238281 59.5625 224.902344 C 60.976562 224.558594 62.40625 224.261719 63.824219 223.9375 L 68.097656 223.007812 C 69.523438 222.699219 70.949219 222.390625 72.382812 222.121094 C 73.8125 221.84375 75.242188 221.542969 76.675781 221.285156 L 80.984375 220.523438 C 82.417969 220.269531 83.863281 220.070312 85.304688 219.84375 C 86.742188 219.613281 88.1875 219.402344 89.632812 219.234375 L 93.972656 218.667969 L 98.328125 218.210938 C 99.777344 218.03125 101.234375 217.976562 102.691406 217.863281 C 104.148438 217.761719 105.601562 217.640625 107.0625 217.613281 L 111.441406 217.453125 L 107.058594 217.359375 C 105.59375 217.304688 104.132812 217.378906 102.667969 217.410156 C 101.207031 217.464844 99.738281 217.457031 98.277344 217.574219 L 93.890625 217.847656 C 92.433594 217.957031 90.972656 218.097656 89.515625 218.246094 C 88.054688 218.382812 86.601562 218.554688 85.152344 218.746094 C 83.699219 218.9375 82.242188 219.097656 80.792969 219.316406 L 76.445312 219.96875 C 75 220.1875 73.558594 220.453125 72.113281 220.695312 C 70.667969 220.929688 69.226562 221.199219 67.789062 221.476562 C 66.347656 221.742188 64.910156 222.015625 63.476562 222.335938 C 62.046875 222.648438 60.609375 222.9375 59.183594 223.269531 C 53.988281 224.449219 48.832031 225.726562 43.691406 227.175781 L 44.75 223.171875 C 45.011719 222.246094 45.210938 221.308594 45.402344 220.367188 L 45.988281 217.550781 L 46.554688 214.734375 L 47.007812 211.898438 C 47.292969 210.003906 47.652344 208.121094 47.875 206.21875 L 48.589844 200.527344 C 48.816406 198.625 48.972656 196.722656 49.167969 194.820312 C 49.367188 192.917969 49.519531 191.015625 49.652344 189.109375 C 49.78125 187.203125 49.960938 185.300781 50.046875 183.390625 L 50.304688 177.667969 L 50.472656 171.941406 C 50.539062 170.035156 50.542969 168.125 50.570312 166.214844 C 50.601562 164.308594 50.609375 162.402344 50.601562 160.492188 C 50.609375 158.582031 50.585938 156.675781 50.539062 154.769531 C 50.503906 152.859375 50.453125 150.953125 50.390625 149.046875 C 50.277344 145.234375 50.105469 141.421875 49.832031 137.621094 C 49.867188 141.433594 49.863281 145.242188 49.824219 149.054688 C 49.796875 152.867188 49.6875 156.675781 49.585938 160.484375 Z M 49.585938 160.484375 "/><path style=" stroke:none;fill-rule:nonzero;fill:#ffffff;fill-opacity:1;" d="M 32.429688 147.617188 L 30.5625 155.195312 C 29.917969 157.71875 29.335938 160.25 28.71875 162.777344 L 26.878906 170.355469 C 26.246094 172.878906 25.683594 175.414062 25.066406 177.9375 L 21.40625 193.085938 L 19.546875 200.648438 L 17.652344 208.191406 C 16.394531 213.222656 15.027344 218.21875 13.640625 223.199219 C 12.929688 225.679688 12.183594 228.148438 11.363281 230.582031 C 10.570312 233.023438 9.699219 235.429688 8.652344 237.699219 L 7.664062 239.835938 L 9.878906 239.609375 C 10.683594 239.527344 11.558594 239.484375 12.40625 239.449219 C 13.257812 239.40625 14.117188 239.382812 14.972656 239.390625 C 15.832031 239.386719 16.691406 239.417969 17.546875 239.460938 C 18.402344 239.5 19.257812 239.574219 20.113281 239.667969 C 20.542969 239.699219 20.960938 239.773438 21.390625 239.824219 C 21.820312 239.875 22.246094 239.9375 22.664062 240.023438 C 23.515625 240.160156 24.347656 240.363281 25.183594 240.578125 C 25.601562 240.683594 26.003906 240.832031 26.417969 240.949219 C 26.839844 241.066406 27.242188 241.21875 27.640625 241.390625 C 28.03125 241.566406 28.460938 241.6875 28.832031 241.910156 L 29.988281 242.527344 L 28.9375 241.730469 C 28.59375 241.445312 28.195312 241.257812 27.820312 241.015625 C 27.445312 240.777344 27.058594 240.554688 26.65625 240.371094 C 26.257812 240.183594 25.863281 239.960938 25.449219 239.800781 C 24.628906 239.472656 23.792969 239.148438 22.941406 238.890625 C 22.519531 238.746094 22.089844 238.625 21.65625 238.515625 C 21.226562 238.40625 20.796875 238.273438 20.363281 238.179688 C 18.625 237.777344 16.859375 237.515625 15.089844 237.3125 C 14.203125 237.210938 13.3125 237.136719 12.421875 237.082031 C 12.261719 237.074219 12.101562 237.070312 11.945312 237.0625 C 12.855469 235.304688 13.660156 233.519531 14.417969 231.726562 C 15.417969 229.28125 16.328125 226.8125 17.210938 224.339844 C 18.074219 221.863281 18.925781 219.378906 19.683594 216.875 C 20.453125 214.375 21.214844 211.871094 21.9375 209.359375 C 22.6875 206.851562 23.371094 204.332031 24.035156 201.804688 L 25.996094 194.222656 C 27.3125 189.171875 28.445312 184.082031 29.605469 178.996094 C 30.171875 176.449219 30.765625 173.910156 31.285156 171.355469 L 32.851562 163.695312 C 33.367188 161.140625 33.890625 158.585938 34.351562 156.019531 L 35.757812 148.328125 C 36.238281 145.765625 36.632812 143.1875 37.066406 140.617188 C 37.492188 138.046875 37.914062 135.472656 38.285156 132.890625 C 39.066406 127.734375 39.777344 122.566406 40.34375 117.375 C 38.921875 122.398438 37.574219 127.4375 36.269531 132.480469 C 35.597656 134.996094 34.964844 137.523438 34.332031 140.046875 C 33.703125 142.574219 33.03125 145.085938 32.429688 147.617188 Z M 32.429688 147.617188 "/><g clip-rule="nonzero" clip-path="url(#8bec1bb238)"><path style=" stroke:none;fill-rule:nonzero;fill:#ffffff;fill-opacity:1;" d="M 59.585938 138.292969 C 59.585938 140.105469 61.058594 141.582031 62.875 141.582031 C 64.6875 141.582031 66.160156 140.105469 66.160156 138.292969 C 66.160156 136.476562 64.6875 135.003906 62.875 135.003906 C 62.699219 135.003906 62.535156 135.027344 62.371094 135.054688 C 62.316406 134.242188 62.300781 133.347656 62.261719 132.382812 C 62.269531 131.378906 62.257812 130.296875 62.285156 129.144531 C 62.386719 126.839844 62.625 124.257812 63.0625 121.480469 C 63.550781 118.710938 64.269531 115.753906 65.261719 112.71875 C 66.265625 109.6875 67.621094 106.597656 69.273438 103.574219 C 69.703125 102.84375 70.132812 102.105469 70.566406 101.367188 C 71.054688 100.617188 71.546875 99.863281 72.039062 99.109375 C 73.039062 97.683594 74.121094 96.316406 75.328125 95.167969 C 76.527344 94.007812 77.871094 93.097656 79.257812 92.566406 C 79.429688 92.507812 79.617188 92.429688 79.773438 92.386719 C 79.921875 92.351562 80.070312 92.308594 80.214844 92.265625 L 80.910156 92.140625 L 80.996094 92.125 L 81.117188 92.117188 L 81.390625 92.097656 C 82.109375 92.039062 82.84375 92.085938 83.582031 92.253906 C 86.550781 92.847656 89.441406 95.085938 91.746094 97.605469 C 94.09375 100.285156 96.066406 103.210938 97.609375 106.265625 C 99.136719 109.320312 100.328125 112.457031 101.042969 115.546875 C 101.273438 116.308594 101.378906 117.085938 101.53125 117.839844 C 101.679688 118.597656 101.824219 119.347656 101.90625 120.09375 C 102 120.835938 102.113281 121.566406 102.1875 122.289062 C 102.234375 123.011719 102.277344 123.726562 102.324219 124.421875 C 102.390625 125.117188 102.355469 125.800781 102.355469 126.472656 C 102.339844 127.144531 102.367188 127.800781 102.328125 128.441406 C 102.222656 129.710938 102.226562 130.941406 102.023438 132.070312 C 101.871094 133.207031 101.730469 134.277344 101.507812 135.25 C 101.304688 136.226562 101.15625 137.144531 100.90625 137.925781 C 100.902344 137.9375 100.898438 137.941406 100.898438 137.953125 C 100.5625 137.835938 100.207031 137.761719 99.832031 137.761719 C 98.015625 137.761719 96.542969 139.230469 96.542969 141.050781 C 96.542969 142.863281 98.011719 144.335938 99.832031 144.335938 C 101.644531 144.335938 103.117188 142.863281 103.117188 141.050781 C 103.117188 139.945312 102.570312 138.976562 101.738281 138.382812 C 101.757812 138.335938 101.777344 138.296875 101.796875 138.253906 C 102.1875 137.480469 102.480469 136.585938 102.84375 135.617188 C 103.238281 134.65625 103.5 133.570312 103.820312 132.414062 C 104.175781 131.265625 104.339844 130 104.625 128.675781 C 104.757812 128.011719 104.792969 127.320312 104.882812 126.613281 C 104.953125 125.90625 105.058594 125.183594 105.066406 124.441406 C 105.277344 121.46875 105.097656 118.21875 104.542969 114.832031 C 104.007812 111.4375 102.996094 107.90625 101.449219 104.453125 C 99.921875 100.992188 97.832031 97.617188 95.253906 94.550781 C 93.886719 92.992188 92.414062 91.539062 90.636719 90.308594 C 88.882812 89.078125 86.851562 88.035156 84.554688 87.558594 C 83.417969 87.308594 82.210938 87.234375 81.023438 87.339844 L 80.578125 87.378906 L 80.351562 87.398438 L 80.074219 87.449219 L 79.351562 87.585938 L 78.410156 87.835938 C 78.105469 87.925781 77.847656 88.03125 77.566406 88.128906 C 75.375 88.976562 73.570312 90.359375 72.082031 91.847656 C 70.578125 93.339844 69.375 94.976562 68.3125 96.625 C 67.824219 97.441406 67.339844 98.25 66.855469 99.054688 C 66.394531 99.890625 65.953125 100.765625 65.511719 101.609375 C 63.851562 104.980469 62.667969 108.410156 61.832031 111.71875 C 60.976562 115.023438 60.535156 118.222656 60.332031 121.171875 C 60.136719 124.125 60.242188 126.832031 60.453125 129.207031 C 60.585938 130.394531 60.714844 131.5 60.882812 132.515625 C 61.085938 133.527344 61.242188 134.453125 61.433594 135.285156 C 61.4375 135.308594 61.445312 135.324219 61.449219 135.347656 C 60.351562 135.875 59.585938 136.988281 59.585938 138.292969 Z M 59.585938 138.292969 "/></g><g clip-rule="nonzero" clip-path="url(#70b6f4129c)"><path style=" stroke:none;fill-rule:nonzero;fill:#ffffff;fill-opacity:1;" d="M 154.15625 223.472656 C 151.347656 223.445312 148.53125 223.335938 145.722656 223.496094 L 137.292969 223.792969 L 135.183594 223.867188 C 134.480469 223.902344 133.78125 223.976562 133.082031 224.027344 L 128.875 224.367188 C 126.074219 224.617188 123.257812 224.757812 120.46875 225.128906 L 112.097656 226.207031 C 109.296875 226.511719 106.535156 227.078125 103.757812 227.523438 C 100.984375 228.007812 98.195312 228.414062 95.449219 229.035156 L 87.179688 230.769531 L 78.976562 232.792969 C 76.242188 233.460938 73.554688 234.320312 70.84375 235.074219 C 68.125 235.816406 65.457031 236.730469 62.773438 237.582031 C 60.078125 238.414062 57.433594 239.390625 54.777344 240.328125 C 52.109375 241.234375 49.503906 242.328125 46.867188 243.320312 C 44.265625 244.398438 41.640625 245.441406 39.074219 246.617188 C 36.675781 247.671875 34.320312 248.796875 31.960938 250.003906 C 31.570312 249.699219 31.175781 249.394531 30.773438 249.109375 L 28.964844 248.058594 L 27.097656 247.191406 C 26.472656 246.90625 25.828125 246.695312 25.199219 246.441406 C 24.566406 246.1875 23.921875 245.984375 23.277344 245.777344 C 22.632812 245.574219 21.992188 245.351562 21.339844 245.179688 L 19.390625 244.648438 L 17.429688 244.179688 C 16.121094 243.875 14.808594 243.601562 13.496094 243.351562 C 12.179688 243.09375 10.859375 242.867188 9.539062 242.652344 C 7.320312 242.300781 5.097656 242.007812 2.859375 241.761719 L 4.039062 239.3125 L 4.914062 237.488281 L 5.660156 235.621094 C 6.625 233.125 7.691406 230.660156 8.515625 228.121094 C 9.363281 225.59375 10.3125 223.089844 11.085938 220.539062 L 13.476562 212.90625 L 15.707031 205.230469 C 16.476562 202.679688 17.128906 200.09375 17.828125 197.527344 C 19.238281 192.390625 20.507812 187.21875 21.832031 182.0625 C 23.09375 176.890625 24.378906 171.722656 25.582031 166.539062 C 26.820312 161.359375 27.996094 156.171875 29.148438 150.972656 C 30.289062 145.773438 31.410156 140.574219 32.511719 135.367188 C 33.609375 130.15625 34.671875 124.945312 35.683594 119.71875 L 32.074219 135.269531 C 30.851562 140.449219 29.609375 145.625 28.347656 150.789062 L 24.511719 166.28125 C 23.234375 171.445312 21.878906 176.585938 20.539062 181.734375 C 19.148438 186.867188 17.800781 192.015625 16.320312 197.121094 C 15.582031 199.671875 14.898438 202.242188 14.128906 204.785156 L 11.867188 212.425781 L 9.453125 220.015625 C 8.667969 222.554688 7.71875 225.027344 6.863281 227.535156 C 6.03125 230.058594 4.96875 232.476562 4.003906 234.9375 L 3.261719 236.773438 L 2.398438 238.542969 L 0.683594 242.082031 L 0.09375 243.296875 L 1.398438 243.429688 C 4.003906 243.703125 6.636719 244.070312 9.238281 244.492188 C 10.542969 244.710938 11.839844 244.941406 13.132812 245.195312 C 14.425781 245.449219 15.71875 245.726562 16.996094 246.03125 L 18.914062 246.496094 L 20.808594 247.023438 C 21.445312 247.1875 22.0625 247.398438 22.6875 247.59375 C 23.308594 247.789062 23.9375 247.980469 24.535156 248.222656 C 25.136719 248.460938 25.761719 248.660156 26.347656 248.929688 L 28.101562 249.730469 L 29.746094 250.675781 C 30.253906 251.03125 30.726562 251.414062 31.222656 251.78125 L 31.769531 252.183594 L 32.292969 251.910156 C 34.734375 250.632812 37.265625 249.410156 39.816406 248.277344 C 42.351562 247.101562 44.949219 246.054688 47.53125 244.972656 C 50.144531 243.96875 52.722656 242.875 55.371094 241.960938 C 58.003906 241.015625 60.628906 240.03125 63.300781 239.195312 C 65.964844 238.335938 68.613281 237.410156 71.3125 236.664062 C 74.007812 235.902344 76.671875 235.035156 79.390625 234.359375 L 87.523438 232.234375 L 95.726562 230.390625 C 98.449219 229.730469 101.222656 229.285156 103.972656 228.765625 C 106.734375 228.285156 109.476562 227.679688 112.261719 227.335938 L 120.589844 226.140625 C 121.976562 225.917969 123.371094 225.800781 124.765625 225.660156 L 128.949219 225.226562 L 133.136719 224.789062 C 133.832031 224.71875 134.53125 224.628906 135.230469 224.582031 L 137.328125 224.457031 L 145.734375 223.960938 C 148.535156 223.734375 151.34375 223.792969 154.152344 223.730469 L 162.578125 223.605469 Z M 154.15625 223.472656 "/></g><g style="fill:#ffffff;fill-opacity:1;"><g transform="translate(65.456976, 190.523463)"><path style="stroke:none" d="M 11.8125 0.34375 C 10.269531 0.34375 8.773438 0.15625 7.328125 -0.21875 C 5.878906 -0.59375 4.570312 -1.078125 3.40625 -1.671875 C 2.238281 -2.273438 1.328125 -2.90625 0.671875 -3.5625 L 2.71875 -8.28125 C 3.9375 -7.539062 5.125 -6.867188 6.28125 -6.265625 C 7.4375 -5.660156 8.664062 -5.1875 9.96875 -4.84375 C 11.269531 -4.507812 12.722656 -4.34375 14.328125 -4.34375 C 15.078125 -4.34375 15.890625 -4.378906 16.765625 -4.453125 C 17.648438 -4.535156 18.539062 -4.675781 19.4375 -4.875 C 20.332031 -5.082031 21.144531 -5.378906 21.875 -5.765625 C 22.613281 -6.148438 23.203125 -6.632812 23.640625 -7.21875 C 24.085938 -7.8125 24.3125 -8.539062 24.3125 -9.40625 C 24.3125 -10.21875 24.070312 -10.882812 23.59375 -11.40625 C 23.125 -11.925781 22.484375 -12.347656 21.671875 -12.671875 C 20.867188 -13.003906 19.96875 -13.269531 18.96875 -13.46875 C 17.976562 -13.675781 16.953125 -13.851562 15.890625 -14 C 14.828125 -14.144531 13.796875 -14.300781 12.796875 -14.46875 C 9.941406 -14.96875 7.679688 -15.65625 6.015625 -16.53125 C 4.359375 -17.414062 3.171875 -18.53125 2.453125 -19.875 C 1.742188 -21.226562 1.390625 -22.832031 1.390625 -24.6875 C 1.390625 -25.726562 1.601562 -26.804688 2.03125 -27.921875 C 2.46875 -29.046875 3.175781 -30.085938 4.15625 -31.046875 C 5.144531 -32.015625 6.460938 -32.796875 8.109375 -33.390625 C 9.765625 -33.992188 11.816406 -34.296875 14.265625 -34.296875 C 15.441406 -34.296875 16.679688 -34.21875 17.984375 -34.0625 C 19.285156 -33.914062 20.503906 -33.675781 21.640625 -33.34375 C 22.785156 -33.019531 23.707031 -32.578125 24.40625 -32.015625 L 23.015625 -26.859375 C 22.359375 -27.328125 21.457031 -27.753906 20.3125 -28.140625 C 19.175781 -28.523438 17.898438 -28.835938 16.484375 -29.078125 C 15.066406 -29.316406 13.632812 -29.4375 12.1875 -29.4375 C 10.945312 -29.4375 9.71875 -29.335938 8.5 -29.140625 C 7.289062 -28.953125 6.191406 -28.65625 5.203125 -28.25 C 4.222656 -27.84375 3.4375 -27.3125 2.84375 -26.65625 C 2.257812 -26 1.96875 -25.207031 1.96875 -24.28125 C 1.96875 -23.507812 2.1875 -22.882812 2.625 -22.40625 C 3.070312 -21.9375 3.660156 -21.578125 4.390625 -21.328125 C 5.128906 -21.078125 5.945312 -20.898438 6.84375 -20.796875 C 7.738281 -20.691406 8.640625 -20.625 9.546875 -20.59375 C 10.453125 -20.5625 11.285156 -20.519531 12.046875 -20.46875 C 14.609375 -20.289062 16.859375 -19.8125 18.796875 -19.03125 C 20.734375 -18.25 22.242188 -17.140625 23.328125 -15.703125 C 24.410156 -14.265625 24.953125 -12.484375 24.953125 -10.359375 C 24.953125 -8.703125 24.585938 -7.210938 23.859375 -5.890625 C 23.140625 -4.566406 22.160156 -3.441406 20.921875 -2.515625 C 19.691406 -1.585938 18.289062 -0.878906 16.71875 -0.390625 C 15.144531 0.0976562 13.507812 0.34375 11.8125 0.34375 Z M 11.8125 0.34375 "/></g></g><g style="fill:#ffffff;fill-opacity:1;"><g transform="translate(94.176763, 190.523463)"><path style="stroke:none" d="M 1.703125 -16.296875 L 16.296875 -16.296875 L 16.296875 -15.28125 L 1.703125 -15.28125 Z M 1.703125 -16.296875 "/></g></g><g style="fill:#ffffff;fill-opacity:1;"><g transform="translate(115.25875, 190.523463)"><path style="stroke:none" d="M 15.65625 0.34375 C 13.300781 0.34375 11.226562 -0.132812 9.4375 -1.09375 C 7.644531 -2.0625 6.148438 -3.375 4.953125 -5.03125 C 3.753906 -6.695312 2.851562 -8.59375 2.25 -10.71875 C 1.65625 -12.851562 1.359375 -15.085938 1.359375 -17.421875 C 1.359375 -19.835938 1.707031 -22.070312 2.40625 -24.125 C 3.113281 -26.175781 4.140625 -27.960938 5.484375 -29.484375 C 6.828125 -31.015625 8.453125 -32.195312 10.359375 -33.03125 C 12.273438 -33.875 14.4375 -34.296875 16.84375 -34.296875 C 18.019531 -34.296875 19.15625 -34.125 20.25 -33.78125 C 21.351562 -33.445312 22.332031 -33.003906 23.1875 -32.453125 C 24.050781 -31.910156 24.6875 -31.320312 25.09375 -30.6875 L 21.765625 -26.71875 C 20.429688 -28.300781 18.847656 -29.570312 17.015625 -30.53125 C 15.179688 -31.5 13.300781 -31.984375 11.375 -31.984375 C 9.832031 -31.984375 8.507812 -31.503906 7.40625 -30.546875 C 6.3125 -29.597656 5.476562 -28.289062 4.90625 -26.625 C 4.332031 -24.96875 4.046875 -23.050781 4.046875 -20.875 C 4.046875 -18.726562 4.296875 -16.679688 4.796875 -14.734375 C 5.304688 -12.785156 6.070312 -11.054688 7.09375 -9.546875 C 8.113281 -8.046875 9.363281 -6.859375 10.84375 -5.984375 C 12.332031 -5.117188 14.035156 -4.6875 15.953125 -4.6875 C 17.378906 -4.6875 18.570312 -4.859375 19.53125 -5.203125 C 20.5 -5.554688 21.257812 -5.953125 21.8125 -6.390625 C 22.363281 -6.835938 22.757812 -7.234375 23 -7.578125 C 23.238281 -7.929688 23.359375 -8.109375 23.359375 -8.109375 L 26.078125 -3.765625 C 26.078125 -3.765625 25.863281 -3.554688 25.4375 -3.140625 C 25.019531 -2.722656 24.378906 -2.25 23.515625 -1.71875 C 22.660156 -1.1875 21.578125 -0.707031 20.265625 -0.28125 C 18.953125 0.132812 17.414062 0.34375 15.65625 0.34375 Z M 15.65625 0.34375 "/></g></g><g style="fill:#ffffff;fill-opacity:1;"><g transform="translate(144.929022, 190.523463)"><path style="stroke:none" d="M 11.265625 0.34375 C 9.503906 0.34375 7.898438 -0.0820312 6.453125 -0.9375 C 5.003906 -1.800781 3.847656 -3.109375 2.984375 -4.859375 C 2.128906 -6.617188 1.703125 -8.847656 1.703125 -11.546875 C 1.703125 -14.234375 2.117188 -16.453125 2.953125 -18.203125 C 3.785156 -19.960938 4.921875 -21.269531 6.359375 -22.125 C 7.796875 -22.988281 9.429688 -23.421875 11.265625 -23.421875 C 13.035156 -23.421875 14.644531 -22.988281 16.09375 -22.125 C 17.539062 -21.269531 18.695312 -19.960938 19.5625 -18.203125 C 20.4375 -16.453125 20.875 -14.234375 20.875 -11.546875 C 20.875 -8.847656 20.441406 -6.617188 19.578125 -4.859375 C 18.722656 -3.109375 17.570312 -1.800781 16.125 -0.9375 C 14.675781 -0.0820312 13.054688 0.34375 11.265625 0.34375 Z M 8.6875 -22.578125 C 7.78125 -22.347656 7.070312 -21.644531 6.5625 -20.46875 C 6.0625 -19.289062 5.78125 -17.8125 5.71875 -16.03125 C 5.664062 -14.257812 5.875 -12.359375 6.34375 -10.328125 C 6.820312 -8.304688 7.484375 -6.515625 8.328125 -4.953125 C 9.179688 -3.390625 10.097656 -2.207031 11.078125 -1.40625 C 12.066406 -0.601562 13.015625 -0.316406 13.921875 -0.546875 C 14.847656 -0.765625 15.566406 -1.460938 16.078125 -2.640625 C 16.585938 -3.816406 16.867188 -5.296875 16.921875 -7.078125 C 16.984375 -8.859375 16.773438 -10.753906 16.296875 -12.765625 C 15.929688 -14.285156 15.46875 -15.675781 14.90625 -16.9375 C 14.34375 -18.207031 13.707031 -19.296875 13 -20.203125 C 12.300781 -21.109375 11.578125 -21.773438 10.828125 -22.203125 C 10.078125 -22.628906 9.363281 -22.753906 8.6875 -22.578125 Z M 8.6875 -22.578125 "/></g></g><g style="fill:#ffffff;fill-opacity:1;"><g transform="translate(170.593684, 190.523463)"><path style="stroke:none" d="M 0 -20.984375 C 0.832031 -21.097656 1.703125 -21.28125 2.609375 -21.53125 C 3.515625 -21.78125 4.378906 -22.070312 5.203125 -22.40625 C 6.035156 -22.75 6.742188 -23.085938 7.328125 -23.421875 L 7.328125 -16.125 C 7.441406 -16.851562 7.707031 -17.632812 8.125 -18.46875 C 8.550781 -19.3125 9.113281 -20.101562 9.8125 -20.84375 C 10.507812 -21.59375 11.347656 -22.207031 12.328125 -22.6875 C 13.316406 -23.175781 14.425781 -23.421875 15.65625 -23.421875 C 16.101562 -23.421875 16.65625 -23.363281 17.3125 -23.25 C 17.96875 -23.144531 18.613281 -22.894531 19.25 -22.5 C 19.882812 -22.101562 20.414062 -21.46875 20.84375 -20.59375 C 21.28125 -19.71875 21.5 -18.515625 21.5 -16.984375 L 21.5 -16.125 C 21.601562 -16.851562 21.863281 -17.632812 22.28125 -18.46875 C 22.707031 -19.3125 23.269531 -20.101562 23.96875 -20.84375 C 24.675781 -21.59375 25.519531 -22.207031 26.5 -22.6875 C 27.488281 -23.175781 28.59375 -23.421875 29.8125 -23.421875 C 30.257812 -23.421875 30.8125 -23.363281 31.46875 -23.25 C 32.125 -23.144531 32.769531 -22.894531 33.40625 -22.5 C 34.039062 -22.101562 34.570312 -21.46875 35 -20.59375 C 35.4375 -19.71875 35.65625 -18.515625 35.65625 -16.984375 L 35.65625 0 L 30.734375 0 L 30.734375 -18.671875 C 30.734375 -19.753906 30.476562 -20.5625 29.96875 -21.09375 C 29.457031 -21.632812 28.796875 -21.90625 27.984375 -21.90625 C 27.078125 -21.90625 26.226562 -21.65625 25.4375 -21.15625 C 24.644531 -20.65625 23.953125 -19.976562 23.359375 -19.125 C 22.773438 -18.28125 22.316406 -17.3125 21.984375 -16.21875 C 21.660156 -15.132812 21.5 -14.003906 21.5 -12.828125 L 21.5 0 L 16.5625 0 L 16.5625 -18.671875 C 16.5625 -19.753906 16.304688 -20.5625 15.796875 -21.09375 C 15.296875 -21.632812 14.632812 -21.90625 13.8125 -21.90625 C 12.90625 -21.90625 12.054688 -21.65625 11.265625 -21.15625 C 10.472656 -20.65625 9.78125 -19.976562 9.1875 -19.125 C 8.601562 -18.28125 8.144531 -17.3125 7.8125 -16.21875 C 7.488281 -15.132812 7.328125 -14.003906 7.328125 -12.828125 L 7.328125 0 L 2.40625 0 L 2.40625 -18.609375 C 2.40625 -19.535156 2.210938 -20.132812 1.828125 -20.40625 C 1.441406 -20.675781 0.832031 -20.8125 0 -20.8125 Z M 0 -20.984375 "/></g></g><g style="fill:#ffffff;fill-opacity:1;"><g transform="translate(211.364241, 190.523463)"><path style="stroke:none" d="M 0 -20.984375 C 0.832031 -21.097656 1.703125 -21.28125 2.609375 -21.53125 C 3.515625 -21.78125 4.378906 -22.070312 5.203125 -22.40625 C 6.035156 -22.75 6.742188 -23.085938 7.328125 -23.421875 L 7.328125 -16.125 C 7.441406 -16.851562 7.707031 -17.632812 8.125 -18.46875 C 8.550781 -19.3125 9.113281 -20.101562 9.8125 -20.84375 C 10.507812 -21.59375 11.347656 -22.207031 12.328125 -22.6875 C 13.316406 -23.175781 14.425781 -23.421875 15.65625 -23.421875 C 16.101562 -23.421875 16.65625 -23.363281 17.3125 -23.25 C 17.96875 -23.144531 18.613281 -22.894531 19.25 -22.5 C 19.882812 -22.101562 20.414062 -21.46875 20.84375 -20.59375 C 21.28125 -19.71875 21.5 -18.515625 21.5 -16.984375 L 21.5 -16.125 C 21.601562 -16.851562 21.863281 -17.632812 22.28125 -18.46875 C 22.707031 -19.3125 23.269531 -20.101562 23.96875 -20.84375 C 24.675781 -21.59375 25.519531 -22.207031 26.5 -22.6875 C 27.488281 -23.175781 28.59375 -23.421875 29.8125 -23.421875 C 30.257812 -23.421875 30.8125 -23.363281 31.46875 -23.25 C 32.125 -23.144531 32.769531 -22.894531 33.40625 -22.5 C 34.039062 -22.101562 34.570312 -21.46875 35 -20.59375 C 35.4375 -19.71875 35.65625 -18.515625 35.65625 -16.984375 L 35.65625 0 L 30.734375 0 L 30.734375 -18.671875 C 30.734375 -19.753906 30.476562 -20.5625 29.96875 -21.09375 C 29.457031 -21.632812 28.796875 -21.90625 27.984375 -21.90625 C 27.078125 -21.90625 26.226562 -21.65625 25.4375 -21.15625 C 24.644531 -20.65625 23.953125 -19.976562 23.359375 -19.125 C 22.773438 -18.28125 22.316406 -17.3125 21.984375 -16.21875 C 21.660156 -15.132812 21.5 -14.003906 21.5 -12.828125 L 21.5 0 L 16.5625 0 L 16.5625 -18.671875 C 16.5625 -19.753906 16.304688 -20.5625 15.796875 -21.09375 C 15.296875 -21.632812 14.632812 -21.90625 13.8125 -21.90625 C 12.90625 -21.90625 12.054688 -21.65625 11.265625 -21.15625 C 10.472656 -20.65625 9.78125 -19.976562 9.1875 -19.125 C 8.601562 -18.28125 8.144531 -17.3125 7.8125 -16.21875 C 7.488281 -15.132812 7.328125 -14.003906 7.328125 -12.828125 L 7.328125 0 L 2.40625 0 L 2.40625 -18.609375 C 2.40625 -19.535156 2.210938 -20.132812 1.828125 -20.40625 C 1.441406 -20.675781 0.832031 -20.8125 0 -20.8125 Z M 0 -20.984375 "/></g></g><g style="fill:#ffffff;fill-opacity:1;"><g transform="translate(252.134799, 190.523463)"><path style="stroke:none" d="M 13.203125 0.34375 C 11.617188 0.34375 10.132812 0.0546875 8.75 -0.515625 C 7.375 -1.097656 6.15625 -1.914062 5.09375 -2.96875 C 4.03125 -4.019531 3.195312 -5.25 2.59375 -6.65625 C 2 -8.0625 1.703125 -9.578125 1.703125 -11.203125 C 1.703125 -12.785156 1.910156 -14.304688 2.328125 -15.765625 C 2.742188 -17.234375 3.394531 -18.539062 4.28125 -19.6875 C 5.164062 -20.84375 6.304688 -21.753906 7.703125 -22.421875 C 9.109375 -23.085938 10.796875 -23.421875 12.765625 -23.421875 C 14.441406 -23.421875 15.898438 -23.132812 17.140625 -22.5625 C 18.390625 -21.988281 19.359375 -21.242188 20.046875 -20.328125 C 20.734375 -19.410156 21.078125 -18.429688 21.078125 -17.390625 C 21.078125 -16.367188 20.8125 -15.546875 20.28125 -14.921875 C 19.75 -14.296875 19.050781 -13.765625 18.1875 -13.328125 C 17.332031 -12.890625 16.429688 -12.441406 15.484375 -11.984375 C 14.398438 -11.460938 13.320312 -10.929688 12.25 -10.390625 C 11.1875 -9.847656 10.222656 -9.347656 9.359375 -8.890625 C 8.503906 -8.441406 7.828125 -8.082031 7.328125 -7.8125 C 8.191406 -6.695312 9.253906 -5.8125 10.515625 -5.15625 C 11.785156 -4.5 13.210938 -4.171875 14.796875 -4.171875 C 16.066406 -4.171875 17.285156 -4.429688 18.453125 -4.953125 C 19.617188 -5.472656 20.53125 -6.15625 21.1875 -7 L 21.359375 -7 L 19.421875 -0.921875 C 18.515625 -0.460938 17.523438 -0.140625 16.453125 0.046875 C 15.378906 0.242188 14.296875 0.34375 13.203125 0.34375 Z M 10.25 -22.4375 C 9.007812 -22.4375 7.984375 -22.109375 7.171875 -21.453125 C 6.367188 -20.796875 5.78125 -19.957031 5.40625 -18.9375 C 5.039062 -17.925781 4.859375 -16.863281 4.859375 -15.75 C 4.859375 -12.8125 5.59375 -10.289062 7.0625 -8.1875 C 7.46875 -8.40625 8.035156 -8.75 8.765625 -9.21875 C 9.503906 -9.6875 10.289062 -10.226562 11.125 -10.84375 C 11.96875 -11.46875 12.773438 -12.140625 13.546875 -12.859375 C 14.316406 -13.585938 14.941406 -14.335938 15.421875 -15.109375 C 15.910156 -15.878906 16.15625 -16.640625 16.15625 -17.390625 C 16.15625 -17.835938 16.070312 -18.347656 15.90625 -18.921875 C 15.738281 -19.503906 15.4375 -20.0625 15 -20.59375 C 14.570312 -21.125 13.972656 -21.5625 13.203125 -21.90625 C 12.429688 -22.257812 11.445312 -22.4375 10.25 -22.4375 Z M 10.25 -22.4375 "/></g></g><g style="fill:#ffffff;fill-opacity:1;"><g transform="translate(277.256335, 190.523463)"><path style="stroke:none" d="M 0 -20.984375 C 0.832031 -21.097656 1.703125 -21.28125 2.609375 -21.53125 C 3.515625 -21.78125 4.378906 -22.070312 5.203125 -22.40625 C 6.035156 -22.75 6.742188 -23.085938 7.328125 -23.421875 L 7.328125 -16.125 C 7.515625 -16.914062 7.789062 -17.734375 8.15625 -18.578125 C 8.53125 -19.429688 9.019531 -20.222656 9.625 -20.953125 C 10.226562 -21.691406 10.945312 -22.285156 11.78125 -22.734375 C 12.613281 -23.191406 13.585938 -23.421875 14.703125 -23.421875 C 16.078125 -23.421875 17.234375 -23.140625 18.171875 -22.578125 L 16.359375 -18.125 C 15.773438 -18.425781 15.164062 -18.679688 14.53125 -18.890625 C 13.894531 -19.109375 13.191406 -19.21875 12.421875 -19.21875 C 11.546875 -19.21875 10.722656 -18.984375 9.953125 -18.515625 C 9.179688 -18.054688 8.550781 -17.390625 8.0625 -16.515625 C 7.570312 -15.648438 7.328125 -14.601562 7.328125 -13.375 L 7.328125 0 L 2.40625 0 L 2.40625 -18.609375 C 2.40625 -19.535156 2.210938 -20.132812 1.828125 -20.40625 C 1.441406 -20.675781 0.832031 -20.8125 0 -20.8125 Z M 0 -20.984375 "/></g></g><g style="fill:#ffffff;fill-opacity:1;"><g transform="translate(299.186963, 190.523463)"><path style="stroke:none" d="M 13.203125 0.34375 C 11.617188 0.34375 10.132812 0.0546875 8.75 -0.515625 C 7.375 -1.097656 6.15625 -1.90625 5.09375 -2.9375 C 4.03125 -3.96875 3.195312 -5.171875 2.59375 -6.546875 C 2 -7.929688 1.703125 -9.425781 1.703125 -11.03125 C 1.703125 -12.59375 1.9375 -14.09375 2.40625 -15.53125 C 2.882812 -16.96875 3.570312 -18.25 4.46875 -19.375 C 5.363281 -20.507812 6.453125 -21.410156 7.734375 -22.078125 C 9.023438 -22.753906 10.5 -23.09375 12.15625 -23.09375 C 14.4375 -23.09375 16.394531 -22.59375 18.03125 -21.59375 C 19.675781 -20.59375 21 -18.984375 22 -16.765625 L 17.828125 -14.5625 C 17.328125 -15.832031 16.726562 -17.046875 16.03125 -18.203125 C 15.34375 -19.359375 14.515625 -20.296875 13.546875 -21.015625 C 12.578125 -21.742188 11.398438 -22.109375 10.015625 -22.109375 C 8.859375 -22.109375 7.898438 -21.785156 7.140625 -21.140625 C 6.390625 -20.492188 5.820312 -19.664062 5.4375 -18.65625 C 5.050781 -17.644531 4.859375 -16.597656 4.859375 -15.515625 C 4.859375 -13.429688 5.257812 -11.523438 6.0625 -9.796875 C 6.863281 -8.066406 8.003906 -6.6875 9.484375 -5.65625 C 10.972656 -4.625 12.742188 -4.109375 14.796875 -4.109375 C 16.066406 -4.109375 17.285156 -4.363281 18.453125 -4.875 C 19.617188 -5.382812 20.53125 -6.054688 21.1875 -6.890625 L 21.359375 -6.890625 L 19.421875 -0.875 C 18.515625 -0.445312 17.523438 -0.140625 16.453125 0.046875 C 15.378906 0.242188 14.296875 0.34375 13.203125 0.34375 Z M 13.203125 0.34375 "/></g></g><g style="fill:#ffffff;fill-opacity:1;"><g transform="translate(324.953482, 190.523463)"><path style="stroke:none" d="M 13.203125 0.34375 C 11.617188 0.34375 10.132812 0.0546875 8.75 -0.515625 C 7.375 -1.097656 6.15625 -1.914062 5.09375 -2.96875 C 4.03125 -4.019531 3.195312 -5.25 2.59375 -6.65625 C 2 -8.0625 1.703125 -9.578125 1.703125 -11.203125 C 1.703125 -12.785156 1.910156 -14.304688 2.328125 -15.765625 C 2.742188 -17.234375 3.394531 -18.539062 4.28125 -19.6875 C 5.164062 -20.84375 6.304688 -21.753906 7.703125 -22.421875 C 9.109375 -23.085938 10.796875 -23.421875 12.765625 -23.421875 C 14.441406 -23.421875 15.898438 -23.132812 17.140625 -22.5625 C 18.390625 -21.988281 19.359375 -21.242188 20.046875 -20.328125 C 20.734375 -19.410156 21.078125 -18.429688 21.078125 -17.390625 C 21.078125 -16.367188 20.8125 -15.546875 20.28125 -14.921875 C 19.75 -14.296875 19.050781 -13.765625 18.1875 -13.328125 C 17.332031 -12.890625 16.429688 -12.441406 15.484375 -11.984375 C 14.398438 -11.460938 13.320312 -10.929688 12.25 -10.390625 C 11.1875 -9.847656 10.222656 -9.347656 9.359375 -8.890625 C 8.503906 -8.441406 7.828125 -8.082031 7.328125 -7.8125 C 8.191406 -6.695312 9.253906 -5.8125 10.515625 -5.15625 C 11.785156 -4.5 13.210938 -4.171875 14.796875 -4.171875 C 16.066406 -4.171875 17.285156 -4.429688 18.453125 -4.953125 C 19.617188 -5.472656 20.53125 -6.15625 21.1875 -7 L 21.359375 -7 L 19.421875 -0.921875 C 18.515625 -0.460938 17.523438 -0.140625 16.453125 0.046875 C 15.378906 0.242188 14.296875 0.34375 13.203125 0.34375 Z M 10.25 -22.4375 C 9.007812 -22.4375 7.984375 -22.109375 7.171875 -21.453125 C 6.367188 -20.796875 5.78125 -19.957031 5.40625 -18.9375 C 5.039062 -17.925781 4.859375 -16.863281 4.859375 -15.75 C 4.859375 -12.8125 5.59375 -10.289062 7.0625 -8.1875 C 7.46875 -8.40625 8.035156 -8.75 8.765625 -9.21875 C 9.503906 -9.6875 10.289062 -10.226562 11.125 -10.84375 C 11.96875 -11.46875 12.773438 -12.140625 13.546875 -12.859375 C 14.316406 -13.585938 14.941406 -14.335938 15.421875 -15.109375 C 15.910156 -15.878906 16.15625 -16.640625 16.15625 -17.390625 C 16.15625 -17.835938 16.070312 -18.347656 15.90625 -18.921875 C 15.738281 -19.503906 15.4375 -20.0625 15 -20.59375 C 14.570312 -21.125 13.972656 -21.5625 13.203125 -21.90625 C 12.429688 -22.257812 11.445312 -22.4375 10.25 -22.4375 Z M 10.25 -22.4375 "/></g></g><g style="fill:#ffffff;fill-opacity:1;"><g transform="translate(140.681422, 221.706722)"><path style="stroke:none" d="M 9.734375 -12.734375 L 9.734375 -11.25 L 5.859375 -11.25 L 5.859375 0 L 4.265625 0 L 4.265625 -11.25 L 0.375 -11.25 L 0.375 -12.734375 Z M 9.734375 -12.734375 "/></g></g><g style="fill:#ffffff;fill-opacity:1;"><g transform="translate(155.571375, 221.706722)"><path style="stroke:none" d="M 9.9375 -12.734375 L 11.515625 -12.734375 L 11.515625 0 L 9.9375 0 L 9.9375 -5.78125 L 3.328125 -5.78125 L 3.328125 0 L 1.75 0 L 1.75 -12.734375 L 3.328125 -12.734375 L 3.328125 -7.3125 L 9.9375 -7.3125 Z M 9.9375 -12.734375 "/></g></g><g style="fill:#ffffff;fill-opacity:1;"><g transform="translate(173.609601, 221.706722)"><path style="stroke:none" d="M 3.328125 -1.53125 L 9.15625 -1.53125 L 9.15625 0 L 1.75 0 L 1.75 -12.734375 L 8.953125 -12.734375 L 8.953125 -11.234375 L 3.328125 -11.234375 L 3.328125 -7.28125 L 8.484375 -7.28125 L 8.484375 -5.8125 L 3.328125 -5.8125 Z M 3.328125 -1.53125 "/></g></g><g style="fill:#ffffff;fill-opacity:1;"><g transform="translate(188.444971, 221.706722)"><path style="stroke:none" d=""/></g></g><g style="fill:#ffffff;fill-opacity:1;"><g transform="translate(197.984689, 221.706722)"><path style="stroke:none" d="M 7.53125 0.21875 C 6.570312 0.21875 5.6875 0.0507812 4.875 -0.28125 C 4.0625 -0.613281 3.351562 -1.078125 2.75 -1.671875 C 2.15625 -2.265625 1.691406 -2.957031 1.359375 -3.75 C 1.035156 -4.550781 0.875 -5.425781 0.875 -6.375 C 0.875 -7.300781 1.035156 -8.164062 1.359375 -8.96875 C 1.691406 -9.769531 2.15625 -10.46875 2.75 -11.0625 C 3.351562 -11.65625 4.0625 -12.117188 4.875 -12.453125 C 5.6875 -12.785156 6.570312 -12.953125 7.53125 -12.953125 C 8.507812 -12.953125 9.40625 -12.785156 10.21875 -12.453125 C 11.03125 -12.117188 11.734375 -11.65625 12.328125 -11.0625 C 12.921875 -10.46875 13.382812 -9.773438 13.71875 -8.984375 C 14.050781 -8.191406 14.21875 -7.320312 14.21875 -6.375 C 14.21875 -5.425781 14.050781 -4.550781 13.71875 -3.75 C 13.382812 -2.945312 12.921875 -2.25 12.328125 -1.65625 C 11.734375 -1.070312 11.03125 -0.613281 10.21875 -0.28125 C 9.40625 0.0507812 8.507812 0.21875 7.53125 0.21875 Z M 7.53125 -1.34375 C 8.507812 -1.34375 9.375 -1.5625 10.125 -2 C 10.882812 -2.4375 11.484375 -3.035156 11.921875 -3.796875 C 12.359375 -4.554688 12.578125 -5.414062 12.578125 -6.375 C 12.578125 -7.332031 12.359375 -8.1875 11.921875 -8.9375 C 11.484375 -9.695312 10.882812 -10.296875 10.125 -10.734375 C 9.375 -11.171875 8.507812 -11.390625 7.53125 -11.390625 C 6.570312 -11.390625 5.710938 -11.164062 4.953125 -10.71875 C 4.203125 -10.28125 3.609375 -9.679688 3.171875 -8.921875 C 2.734375 -8.171875 2.515625 -7.320312 2.515625 -6.375 C 2.515625 -5.414062 2.734375 -4.554688 3.171875 -3.796875 C 3.609375 -3.046875 4.203125 -2.445312 4.953125 -2 C 5.710938 -1.5625 6.570312 -1.34375 7.53125 -1.34375 Z M 7.53125 -1.34375 "/></g></g><g style="fill:#ffffff;fill-opacity:1;"><g transform="translate(217.842717, 221.706722)"><path style="stroke:none" d="M 10.34375 -12.734375 L 11.90625 -12.734375 L 11.90625 0 L 10.5625 0 L 3.296875 -9.9375 L 3.296875 0 L 1.75 0 L 1.75 -12.734375 L 3.1875 -12.734375 L 10.34375 -2.90625 Z M 10.34375 -12.734375 "/></g></g><g style="fill:#ffffff;fill-opacity:1;"><g transform="translate(236.24491, 221.706722)"><path style="stroke:none" d="M 3.328125 -1.5 L 8.9375 -1.5 L 8.9375 0 L 1.75 0 L 1.75 -12.734375 L 3.328125 -12.734375 Z M 3.328125 -1.5 "/></g></g><g style="fill:#ffffff;fill-opacity:1;"><g transform="translate(250.334152, 221.706722)"><path style="stroke:none" d="M 1.75 0 L 1.75 -12.734375 L 3.328125 -12.734375 L 3.328125 0 Z M 1.75 0 "/></g></g><g style="fill:#ffffff;fill-opacity:1;"><g transform="translate(260.183238, 221.706722)"><path style="stroke:none" d="M 10.34375 -12.734375 L 11.90625 -12.734375 L 11.90625 0 L 10.5625 0 L 3.296875 -9.9375 L 3.296875 0 L 1.75 0 L 1.75 -12.734375 L 3.1875 -12.734375 L 10.34375 -2.90625 Z M 10.34375 -12.734375 "/></g></g><g style="fill:#ffffff;fill-opacity:1;"><g transform="translate(278.585431, 221.706722)"><path style="stroke:none" d="M 3.328125 -1.53125 L 9.15625 -1.53125 L 9.15625 0 L 1.75 0 L 1.75 -12.734375 L 8.953125 -12.734375 L 8.953125 -11.234375 L 3.328125 -11.234375 L 3.328125 -7.28125 L 8.484375 -7.28125 L 8.484375 -5.8125 L 3.328125 -5.8125 Z M 3.328125 -1.53125 "/></g></g><g style="fill:#ffffff;fill-opacity:1;"><g transform="translate(293.4208, 221.706722)"><path style="stroke:none" d=""/></g></g><g style="fill:#ffffff;fill-opacity:1;"><g transform="translate(302.960519, 221.706722)"><path style="stroke:none" d="M 5.53125 0.15625 C 4.59375 0.15625 3.769531 -0.0078125 3.0625 -0.34375 C 2.363281 -0.675781 1.816406 -1.144531 1.421875 -1.75 C 1.035156 -2.363281 0.84375 -3.09375 0.84375 -3.9375 L 2.453125 -3.9375 C 2.453125 -3.132812 2.742188 -2.507812 3.328125 -2.0625 C 3.910156 -1.625 4.640625 -1.40625 5.515625 -1.40625 C 6.046875 -1.40625 6.53125 -1.488281 6.96875 -1.65625 C 7.40625 -1.832031 7.75 -2.085938 8 -2.421875 C 8.257812 -2.765625 8.390625 -3.160156 8.390625 -3.609375 C 8.390625 -4.097656 8.238281 -4.476562 7.9375 -4.75 C 7.644531 -5.03125 7.253906 -5.25 6.765625 -5.40625 C 6.285156 -5.5625 5.769531 -5.703125 5.21875 -5.828125 C 4.726562 -5.941406 4.238281 -6.070312 3.75 -6.21875 C 3.257812 -6.363281 2.8125 -6.5625 2.40625 -6.8125 C 2 -7.0625 1.675781 -7.390625 1.4375 -7.796875 C 1.195312 -8.203125 1.078125 -8.722656 1.078125 -9.359375 C 1.078125 -10.460938 1.46875 -11.328125 2.25 -11.953125 C 3.039062 -12.585938 4.09375 -12.90625 5.40625 -12.90625 C 6.726562 -12.90625 7.769531 -12.566406 8.53125 -11.890625 C 9.289062 -11.210938 9.671875 -10.296875 9.671875 -9.140625 L 8.078125 -9.140625 C 8.078125 -9.835938 7.820312 -10.382812 7.3125 -10.78125 C 6.800781 -11.175781 6.160156 -11.375 5.390625 -11.375 C 4.609375 -11.375 3.957031 -11.203125 3.4375 -10.859375 C 2.925781 -10.515625 2.671875 -10.035156 2.671875 -9.421875 C 2.671875 -8.953125 2.816406 -8.585938 3.109375 -8.328125 C 3.398438 -8.066406 3.78125 -7.859375 4.25 -7.703125 C 4.71875 -7.554688 5.222656 -7.421875 5.765625 -7.296875 C 6.265625 -7.179688 6.765625 -7.039062 7.265625 -6.875 C 7.773438 -6.71875 8.238281 -6.507812 8.65625 -6.25 C 9.070312 -6 9.40625 -5.660156 9.65625 -5.234375 C 9.90625 -4.816406 10.03125 -4.28125 10.03125 -3.625 C 10.03125 -2.820312 9.832031 -2.140625 9.4375 -1.578125 C 9.039062 -1.015625 8.503906 -0.582031 7.828125 -0.28125 C 7.148438 0.0078125 6.382812 0.15625 5.53125 0.15625 Z M 5.53125 0.15625 "/></g></g><g style="fill:#ffffff;fill-opacity:1;"><g transform="translate(318.596599, 221.706722)"><path style="stroke:none" d="M 9.9375 -12.734375 L 11.515625 -12.734375 L 11.515625 0 L 9.9375 0 L 9.9375 -5.78125 L 3.328125 -5.78125 L 3.328125 0 L 1.75 0 L 1.75 -12.734375 L 3.328125 -12.734375 L 3.328125 -7.3125 L 9.9375 -7.3125 Z M 9.9375 -12.734375 "/></g></g><g style="fill:#ffffff;fill-opacity:1;"><g transform="translate(336.634825, 221.706722)"><path style="stroke:none" d="M 7.53125 0.21875 C 6.570312 0.21875 5.6875 0.0507812 4.875 -0.28125 C 4.0625 -0.613281 3.351562 -1.078125 2.75 -1.671875 C 2.15625 -2.265625 1.691406 -2.957031 1.359375 -3.75 C 1.035156 -4.550781 0.875 -5.425781 0.875 -6.375 C 0.875 -7.300781 1.035156 -8.164062 1.359375 -8.96875 C 1.691406 -9.769531 2.15625 -10.46875 2.75 -11.0625 C 3.351562 -11.65625 4.0625 -12.117188 4.875 -12.453125 C 5.6875 -12.785156 6.570312 -12.953125 7.53125 -12.953125 C 8.507812 -12.953125 9.40625 -12.785156 10.21875 -12.453125 C 11.03125 -12.117188 11.734375 -11.65625 12.328125 -11.0625 C 12.921875 -10.46875 13.382812 -9.773438 13.71875 -8.984375 C 14.050781 -8.191406 14.21875 -7.320312 14.21875 -6.375 C 14.21875 -5.425781 14.050781 -4.550781 13.71875 -3.75 C 13.382812 -2.945312 12.921875 -2.25 12.328125 -1.65625 C 11.734375 -1.070312 11.03125 -0.613281 10.21875 -0.28125 C 9.40625 0.0507812 8.507812 0.21875 7.53125 0.21875 Z M 7.53125 -1.34375 C 8.507812 -1.34375 9.375 -1.5625 10.125 -2 C 10.882812 -2.4375 11.484375 -3.035156 11.921875 -3.796875 C 12.359375 -4.554688 12.578125 -5.414062 12.578125 -6.375 C 12.578125 -7.332031 12.359375 -8.1875 11.921875 -8.9375 C 11.484375 -9.695312 10.882812 -10.296875 10.125 -10.734375 C 9.375 -11.171875 8.507812 -11.390625 7.53125 -11.390625 C 6.570312 -11.390625 5.710938 -11.164062 4.953125 -10.71875 C 4.203125 -10.28125 3.609375 -9.679688 3.171875 -8.921875 C 2.734375 -8.171875 2.515625 -7.320312 2.515625 -6.375 C 2.515625 -5.414062 2.734375 -4.554688 3.171875 -3.796875 C 3.609375 -3.046875 4.203125 -2.445312 4.953125 -2 C 5.710938 -1.5625 6.570312 -1.34375 7.53125 -1.34375 Z M 7.53125 -1.34375 "/></g></g><g style="fill:#ffffff;fill-opacity:1;"><g transform="translate(356.492853, 221.706722)"><path style="stroke:none" d="M 6.3125 -12.734375 C 7.113281 -12.734375 7.832031 -12.554688 8.46875 -12.203125 C 9.101562 -11.859375 9.609375 -11.375 9.984375 -10.75 C 10.359375 -10.132812 10.546875 -9.441406 10.546875 -8.671875 C 10.546875 -7.890625 10.359375 -7.1875 9.984375 -6.5625 C 9.609375 -5.945312 9.101562 -5.460938 8.46875 -5.109375 C 7.832031 -4.765625 7.113281 -4.59375 6.3125 -4.59375 L 3.328125 -4.59375 L 3.328125 0 L 1.75 0 L 1.75 -12.734375 Z M 6.21875 -6.140625 C 7 -6.140625 7.640625 -6.378906 8.140625 -6.859375 C 8.648438 -7.335938 8.90625 -7.941406 8.90625 -8.671875 C 8.90625 -9.390625 8.648438 -9.988281 8.140625 -10.46875 C 7.640625 -10.945312 7 -11.1875 6.21875 -11.1875 L 3.328125 -11.1875 L 3.328125 -6.140625 Z M 6.21875 -6.140625 "/></g></g></g></svg>