<svg width="76" height="82" viewBox="0 0 76 82" fill="none" xmlns="http://www.w3.org/2000/svg">
<g filter="url(#filter0_dd_14_3)">
<path d="M71.3848 0.515625C70.4733 2.59896 69.6595 4.42188 68.9434 5.98438C68.2272 7.54688 67.6087 8.88151 67.0879 9.98828C66.502 11.2253 66.0137 12.332 65.623 13.3086C65.2975 14.0247 64.8743 15.0013 64.3535 16.2383C63.8327 17.3451 63.1816 18.8099 62.4004 20.6328C61.6842 22.3906 60.7402 24.6693 59.5684 27.4688C58.9824 25.0599 58.2663 22.944 57.4199 21.1211C56.5736 19.2982 55.6621 17.7031 54.6855 16.3359C53.709 14.9688 52.6673 13.862 51.5605 13.0156C50.5189 12.1042 49.4772 11.3555 48.4355 10.7695C46.0267 9.46745 43.4876 8.7513 40.8184 8.62109C37.3027 8.81641 34.5358 9.40234 32.5176 10.3789C30.5645 11.2904 29.1322 12.3646 28.2207 13.6016C27.3092 14.7734 26.821 16.0104 26.7559 17.3125C26.6908 18.5495 26.8535 19.5911 27.2441 20.4375C27.5697 21.2188 28.709 22.1302 30.6621 23.1719C32.6803 24.2135 35.0892 25.418 37.8887 26.7852C40.7533 28.0872 43.8132 29.5846 47.0684 31.2773C50.3236 32.9049 53.3184 34.7279 56.0527 36.7461C58.8522 38.6992 61.196 40.8477 63.084 43.1914C65.0371 45.4701 66.1113 47.9115 66.3066 50.5156C66.502 53.8359 66.4694 56.8307 66.209 59.5C65.9486 62.1693 65.0371 64.4479 63.4746 66.3359C61.9121 68.224 59.4707 69.7214 56.1504 70.8281C52.8952 71.9349 48.3704 72.6185 42.5762 72.8789C36.5866 73.1393 31.6712 72.8138 27.8301 71.9023C23.9889 70.9909 20.8639 69.7539 18.4551 68.1914C16.1113 66.6289 14.3535 64.9036 13.1816 63.0156C12.0749 61.1276 11.2611 59.3372 10.7402 57.6445C10.2194 55.8867 9.86133 54.3893 9.66602 53.1523C9.4707 51.8503 9.14518 51.069 8.68945 50.8086C8.16862 50.4831 7.64779 50.1901 7.12695 49.9297C6.67122 49.6693 6.18294 49.4414 5.66211 49.2461C5.14128 48.9857 4.62044 48.7578 4.09961 48.5625L32.5176 43.9727C30.89 45.2747 29.6204 46.4792 28.709 47.5859C27.8626 48.6927 27.2116 49.6693 26.7559 50.5156C26.235 51.4922 25.877 52.4036 25.6816 53.25C25.5514 54.1615 25.8444 55.3008 26.5605 56.668C27.2767 58.0352 28.2533 59.3698 29.4902 60.6719C30.7923 61.9089 32.2897 62.9505 33.9824 63.7969C35.6751 64.6432 37.4329 65.0013 39.2559 64.8711C41.5345 64.6758 43.39 64.1224 44.8223 63.2109C46.2546 62.2344 47.3288 61.0299 48.0449 59.5977C48.8262 58.1654 49.2819 56.6029 49.4121 54.9102C49.5423 53.2174 49.3796 51.5573 48.9238 49.9297C48.5332 48.237 47.8822 46.6745 46.9707 45.2422C46.0592 43.7448 44.985 42.5078 43.748 41.5312C42.6413 40.75 40.916 40.0013 38.5723 39.2852C36.2936 38.569 33.722 37.7878 30.8574 36.9414C28.0579 36.0951 25.1608 35.1185 22.166 34.0117C19.2363 32.9049 16.5671 31.5378 14.1582 29.9102C11.8145 28.2826 9.92643 26.362 8.49414 24.1484C7.12695 21.9349 6.60612 19.2656 6.93164 16.1406C7.19206 13.4714 8.03841 11.2578 9.4707 9.5C10.9681 7.67708 12.8236 6.24479 15.0371 5.20312C17.3158 4.09635 19.8223 3.28255 22.5566 2.76172C25.3561 2.24089 28.1882 1.94792 31.0527 1.88281C33.9824 1.7526 36.847 1.78516 39.6465 1.98047C42.5111 2.17578 45.0827 2.40365 47.3613 2.66406C49.64 2.92448 51.5605 3.1849 53.123 3.44531C54.7507 3.64062 55.7598 3.77083 56.1504 3.83594C57.8431 3.96615 59.5358 3.93359 61.2285 3.73828C62.7259 3.60807 64.3535 3.3151 66.1113 2.85938C67.9342 2.33854 69.6921 1.55729 71.3848 0.515625Z" fill="#201769"/>
</g>
<defs>
<filter id="filter0_dd_14_3" x="0.0996094" y="0.515625" width="75.2852" height="80.7539" filterUnits="userSpaceOnUse" color-interpolation-filters="sRGB">
<feFlood flood-opacity="0" result="BackgroundImageFix"/>
<feColorMatrix in="SourceAlpha" type="matrix" values="0 0 0 0 0 0 0 0 0 0 0 0 0 0 0 0 0 0 127 0" result="hardAlpha"/>
<feOffset dy="4"/>
<feGaussianBlur stdDeviation="2"/>
<feComposite in2="hardAlpha" operator="out"/>
<feColorMatrix type="matrix" values="0 0 0 0 0 0 0 0 0 0 0 0 0 0 0 0 0 0 0.25 0"/>
<feBlend mode="normal" in2="BackgroundImageFix" result="effect1_dropShadow_14_3"/>
<feColorMatrix in="SourceAlpha" type="matrix" values="0 0 0 0 0 0 0 0 0 0 0 0 0 0 0 0 0 0 127 0" result="hardAlpha"/>
<feOffset dy="4"/>
<feGaussianBlur stdDeviation="2"/>
<feComposite in2="hardAlpha" operator="out"/>
<feColorMatrix type="matrix" values="0 0 0 0 0 0 0 0 0 0 0 0 0 0 0 0 0 0 0.25 0"/>
<feBlend mode="normal" in2="effect1_dropShadow_14_3" result="effect2_dropShadow_14_3"/>
<feBlend mode="normal" in="SourceGraphic" in2="effect2_dropShadow_14_3" result="shape"/>
</filter>
</defs>
</svg>
