<svg xmlns="http://www.w3.org/2000/svg" xmlns:xlink="http://www.w3.org/1999/xlink" width="500" zoomAndPan="magnify" viewBox="0 0 375 374.999991" height="500" preserveAspectRatio="xMidYMid meet" version="1.2"><defs><clipPath id="e8d9af47dd"><path d="M 58 88.910156 L 105 88.910156 L 105 146 L 58 146 Z M 58 88.910156 "/></clipPath><clipPath id="d593b08988"><path d="M 0 121 L 161 121 L 161 252.410156 L 0 252.410156 Z M 0 121 "/></clipPath></defs><g id="109ffcb5a5"><rect x="0" width="375" y="0" height="374.999991" style="fill:#ffffff;fill-opacity:1;stroke:none;"/><rect x="0" width="375" y="0" height="374.999991" style="fill:#ffffff;fill-opacity:1;stroke:none;"/><path style=" stroke:none;fill-rule:nonzero;fill:#000000;fill-opacity:1;" d="M 116.824219 221.746094 L 110.78125 221.992188 C 108.765625 222.097656 106.753906 222.21875 104.742188 222.351562 L 98.703125 222.820312 L 92.671875 223.371094 L 86.652344 224.054688 L 80.640625 224.824219 L 74.640625 225.679688 C 72.644531 225.988281 70.644531 226.304688 68.652344 226.640625 L 62.679688 227.71875 L 56.726562 228.871094 L 50.78125 230.113281 L 44.859375 231.445312 L 38.960938 232.886719 L 38.46875 233.015625 L 38.824219 231.21875 L 40.132812 224.039062 L 41.316406 216.835938 L 42.390625 209.613281 L 43.339844 202.375 L 44.179688 195.121094 L 44.90625 187.859375 L 45.507812 180.582031 L 46.007812 173.300781 L 46.371094 166.007812 L 46.632812 158.714844 L 46.753906 151.414062 L 46.757812 144.117188 L 46.660156 136.824219 L 46.460938 129.53125 C 46.414062 128.292969 46.355469 127.054688 46.292969 125.820312 L 61.933594 127.597656 L 81.277344 129.621094 L 90.957031 130.554688 L 100.644531 131.460938 L 110.339844 132.292969 C 113.578125 132.539062 116.808594 132.8125 120.050781 133.027344 C 116.875 132.351562 113.6875 131.734375 110.507812 131.089844 L 100.949219 129.253906 L 91.382812 127.488281 L 81.8125 125.753906 L 62.648438 122.433594 L 43.457031 119.296875 L 39.945312 118.71875 L 39.960938 122.445312 C 39.972656 124.847656 39.957031 127.253906 39.996094 129.652344 L 39.980469 136.855469 L 39.863281 144.054688 L 39.644531 151.25 L 39.34375 158.441406 L 38.980469 165.628906 L 38.519531 172.8125 L 37.988281 179.988281 L 37.363281 187.15625 L 36.65625 194.3125 L 35.867188 201.464844 L 34.984375 208.605469 L 34.03125 215.738281 L 32.980469 222.859375 L 31.859375 229.96875 L 30.640625 237.066406 L 29.695312 242.597656 L 34.972656 241.03125 L 40.710938 239.328125 L 46.46875 237.707031 L 52.242188 236.132812 L 58.039062 234.625 L 63.855469 233.199219 L 69.695312 231.847656 C 71.648438 231.433594 73.597656 230.992188 75.546875 230.546875 L 81.410156 229.300781 L 87.300781 228.132812 L 93.203125 227.039062 L 99.117188 225.976562 L 105.046875 224.996094 C 107.03125 224.699219 109.011719 224.390625 110.992188 224.066406 L 116.953125 223.191406 L 122.925781 222.367188 L 128.910156 221.582031 C 124.882812 221.574219 120.851562 221.609375 116.824219 221.746094 Z M 116.824219 221.746094 "/><path style=" stroke:none;fill-rule:nonzero;fill:#000000;fill-opacity:1;" d="M 49.089844 161.402344 C 49.050781 163.289062 48.992188 165.171875 48.910156 167.054688 C 48.832031 168.9375 48.777344 170.820312 48.667969 172.703125 L 48.355469 178.34375 L 47.957031 183.976562 C 47.839844 185.859375 47.65625 187.730469 47.511719 189.609375 C 47.367188 191.484375 47.199219 193.359375 46.984375 195.226562 C 46.777344 197.097656 46.605469 198.972656 46.367188 200.835938 L 45.617188 206.425781 C 45.382812 208.292969 45.011719 210.136719 44.71875 211.988281 L 44.25 214.765625 L 43.671875 217.519531 C 43.257812 219.347656 42.984375 221.210938 42.492188 223.015625 L 41.105469 228.460938 L 40.703125 230.039062 L 42.238281 229.578125 C 47.742188 227.9375 53.347656 226.492188 58.960938 225.171875 C 60.363281 224.828125 61.777344 224.535156 63.183594 224.214844 L 67.414062 223.296875 C 68.824219 222.988281 70.234375 222.683594 71.652344 222.414062 C 73.070312 222.140625 74.480469 221.84375 75.902344 221.589844 L 80.167969 220.835938 C 81.589844 220.585938 83.015625 220.386719 84.445312 220.160156 C 85.867188 219.933594 87.296875 219.726562 88.730469 219.558594 L 93.027344 219 L 97.335938 218.546875 C 98.769531 218.371094 100.210938 218.316406 101.652344 218.199219 C 103.09375 218.101562 104.535156 217.980469 105.980469 217.953125 L 110.316406 217.796875 L 105.976562 217.703125 C 104.527344 217.648438 103.078125 217.722656 101.628906 217.753906 C 100.183594 217.804688 98.730469 217.800781 97.285156 217.914062 L 92.945312 218.183594 C 91.5 218.296875 90.054688 218.433594 88.613281 218.582031 C 87.167969 218.714844 85.726562 218.882812 84.292969 219.074219 C 82.855469 219.265625 81.410156 219.421875 79.980469 219.640625 L 75.675781 220.285156 C 74.242188 220.503906 72.816406 220.765625 71.386719 221.003906 C 69.953125 221.238281 68.53125 221.503906 67.105469 221.777344 C 65.679688 222.042969 64.253906 222.3125 62.839844 222.628906 C 61.421875 222.9375 60 223.222656 58.589844 223.554688 C 53.445312 224.71875 48.339844 225.984375 43.253906 227.417969 L 44.300781 223.457031 C 44.558594 222.539062 44.757812 221.609375 44.949219 220.679688 L 45.527344 217.894531 L 46.085938 215.101562 L 46.535156 212.296875 C 46.816406 210.421875 47.175781 208.558594 47.394531 206.675781 L 48.101562 201.039062 C 48.324219 199.160156 48.480469 197.277344 48.671875 195.394531 C 48.871094 193.511719 49.023438 191.625 49.152344 189.738281 C 49.28125 187.851562 49.460938 185.96875 49.542969 184.078125 L 49.800781 178.414062 L 49.964844 172.746094 C 50.03125 170.859375 50.035156 168.96875 50.0625 167.078125 C 50.09375 165.1875 50.101562 163.300781 50.09375 161.414062 C 50.101562 159.523438 50.078125 157.636719 50.03125 155.746094 C 49.996094 153.859375 49.949219 151.972656 49.882812 150.082031 C 49.773438 146.308594 49.601562 142.539062 49.328125 138.773438 C 49.367188 142.546875 49.363281 146.320312 49.324219 150.089844 C 49.296875 153.867188 49.191406 157.636719 49.089844 161.402344 Z M 49.089844 161.402344 "/><path style=" stroke:none;fill-rule:nonzero;fill:#000000;fill-opacity:1;" d="M 32.105469 148.671875 L 30.257812 156.171875 C 29.621094 158.667969 29.042969 161.171875 28.433594 163.675781 L 26.609375 171.175781 C 25.984375 173.675781 25.429688 176.183594 24.820312 178.683594 L 21.195312 193.675781 L 19.355469 201.160156 L 17.476562 208.628906 C 16.234375 213.609375 14.878906 218.554688 13.511719 223.480469 C 12.804688 225.9375 12.066406 228.382812 11.253906 230.792969 C 10.46875 233.207031 9.605469 235.589844 8.570312 237.835938 L 7.589844 239.949219 L 9.785156 239.726562 C 10.582031 239.644531 11.445312 239.601562 12.285156 239.566406 C 13.128906 239.527344 13.980469 239.503906 14.828125 239.511719 C 15.675781 239.507812 16.527344 239.535156 17.375 239.578125 C 18.222656 239.621094 19.070312 239.695312 19.914062 239.785156 C 20.339844 239.816406 20.753906 239.890625 21.179688 239.941406 C 21.605469 239.988281 22.023438 240.050781 22.441406 240.136719 C 23.28125 240.273438 24.105469 240.472656 24.933594 240.683594 C 25.347656 240.789062 25.746094 240.933594 26.15625 241.054688 C 26.574219 241.171875 26.972656 241.320312 27.363281 241.488281 C 27.753906 241.660156 28.175781 241.785156 28.546875 242.003906 L 29.691406 242.613281 L 28.648438 241.828125 C 28.3125 241.542969 27.914062 241.359375 27.546875 241.117188 C 27.171875 240.882812 26.792969 240.664062 26.390625 240.480469 C 25.996094 240.292969 25.605469 240.074219 25.199219 239.917969 C 24.382812 239.589844 23.558594 239.269531 22.710938 239.015625 C 22.296875 238.871094 21.871094 238.753906 21.445312 238.644531 C 21.015625 238.535156 20.59375 238.402344 20.160156 238.3125 C 18.441406 237.914062 16.695312 237.65625 14.941406 237.453125 C 14.0625 237.351562 13.183594 237.277344 12.300781 237.226562 C 12.140625 237.21875 11.988281 237.214844 11.832031 237.207031 C 12.730469 235.464844 13.527344 233.699219 14.277344 231.921875 C 15.269531 229.503906 16.167969 227.058594 17.039062 224.609375 C 17.894531 222.160156 18.738281 219.703125 19.488281 217.222656 C 20.253906 214.746094 21.007812 212.269531 21.722656 209.78125 C 22.460938 207.300781 23.140625 204.808594 23.796875 202.308594 L 25.738281 194.800781 C 27.042969 189.800781 28.164062 184.761719 29.3125 179.726562 C 29.871094 177.210938 30.460938 174.695312 30.972656 172.167969 L 32.523438 164.582031 C 33.035156 162.054688 33.554688 159.527344 34.011719 156.988281 L 35.402344 149.371094 C 35.875 146.839844 36.265625 144.285156 36.695312 141.742188 C 37.117188 139.195312 37.535156 136.648438 37.902344 134.09375 C 38.675781 128.988281 39.378906 123.871094 39.941406 118.734375 C 38.53125 123.707031 37.199219 128.695312 35.90625 133.683594 C 35.242188 136.175781 34.617188 138.679688 33.988281 141.175781 C 33.367188 143.675781 32.703125 146.164062 32.105469 148.671875 Z M 32.105469 148.671875 "/><g clip-rule="nonzero" clip-path="url(#e8d9af47dd)"><path style=" stroke:none;fill-rule:nonzero;fill:#000000;fill-opacity:1;" d="M 58.988281 139.4375 C 58.988281 141.234375 60.445312 142.695312 62.242188 142.695312 C 64.039062 142.695312 65.492188 141.234375 65.492188 139.4375 C 65.492188 137.640625 64.039062 136.183594 62.242188 136.183594 C 62.070312 136.183594 61.90625 136.207031 61.742188 136.234375 C 61.691406 135.429688 61.675781 134.546875 61.636719 133.589844 C 61.644531 132.59375 61.628906 131.523438 61.660156 130.386719 C 61.757812 128.101562 61.992188 125.546875 62.425781 122.796875 C 62.910156 120.054688 63.621094 117.128906 64.605469 114.125 C 65.601562 111.125 66.9375 108.066406 68.578125 105.074219 C 69 104.351562 69.425781 103.621094 69.855469 102.886719 C 70.339844 102.148438 70.824219 101.402344 71.3125 100.652344 C 72.304688 99.246094 73.375 97.890625 74.570312 96.753906 C 75.757812 95.601562 77.085938 94.703125 78.460938 94.175781 C 78.628906 94.121094 78.8125 94.042969 78.96875 94 C 79.113281 93.964844 79.261719 93.925781 79.40625 93.878906 L 80.09375 93.753906 L 80.175781 93.742188 L 80.300781 93.734375 L 80.566406 93.714844 C 81.28125 93.65625 82.007812 93.703125 82.738281 93.867188 C 85.679688 94.457031 88.539062 96.671875 90.820312 99.164062 C 93.144531 101.816406 95.097656 104.714844 96.625 107.738281 C 98.136719 110.761719 99.316406 113.863281 100.023438 116.925781 C 100.25 117.679688 100.355469 118.445312 100.507812 119.195312 C 100.652344 119.945312 100.792969 120.6875 100.875 121.421875 C 100.96875 122.160156 101.082031 122.882812 101.15625 123.597656 C 101.203125 124.316406 101.242188 125.019531 101.289062 125.707031 C 101.355469 126.398438 101.324219 127.074219 101.324219 127.738281 C 101.308594 128.402344 101.332031 129.054688 101.296875 129.6875 C 101.191406 130.945312 101.191406 132.164062 100.992188 133.28125 C 100.84375 134.40625 100.703125 135.464844 100.484375 136.425781 C 100.28125 137.394531 100.132812 138.304688 99.886719 139.078125 C 99.882812 139.085938 99.878906 139.09375 99.878906 139.101562 C 99.546875 138.988281 99.195312 138.914062 98.820312 138.914062 C 97.023438 138.914062 95.566406 140.367188 95.566406 142.167969 C 95.566406 143.964844 97.023438 145.421875 98.820312 145.421875 C 100.617188 145.421875 102.078125 143.964844 102.078125 142.167969 C 102.078125 141.074219 101.535156 140.117188 100.710938 139.527344 C 100.730469 139.480469 100.75 139.441406 100.769531 139.402344 C 101.152344 138.636719 101.445312 137.75 101.804688 136.792969 C 102.195312 135.839844 102.457031 134.765625 102.769531 133.621094 C 103.121094 132.484375 103.285156 131.230469 103.566406 129.921875 C 103.699219 129.261719 103.734375 128.578125 103.824219 127.878906 C 103.894531 127.179688 103.996094 126.464844 104.003906 125.726562 C 104.214844 122.789062 104.035156 119.570312 103.488281 116.214844 C 102.957031 112.859375 101.957031 109.359375 100.425781 105.945312 C 98.914062 102.519531 96.84375 99.175781 94.292969 96.144531 C 92.9375 94.597656 91.480469 93.160156 89.722656 91.941406 C 87.988281 90.726562 85.976562 89.691406 83.703125 89.21875 C 82.578125 88.972656 81.382812 88.902344 80.207031 89.003906 L 79.765625 89.042969 L 79.542969 89.0625 L 79.265625 89.113281 L 78.550781 89.246094 L 77.617188 89.496094 C 77.316406 89.585938 77.0625 89.6875 76.785156 89.785156 C 74.617188 90.625 72.828125 91.992188 71.355469 93.464844 C 69.867188 94.941406 68.675781 96.5625 67.625 98.195312 C 67.140625 99.003906 66.660156 99.800781 66.183594 100.597656 C 65.722656 101.429688 65.289062 102.292969 64.851562 103.128906 C 63.207031 106.464844 62.039062 109.859375 61.210938 113.136719 C 60.363281 116.40625 59.925781 119.574219 59.722656 122.492188 C 59.53125 125.414062 59.636719 128.09375 59.847656 130.445312 C 59.976562 131.621094 60.105469 132.714844 60.269531 133.722656 C 60.46875 134.722656 60.628906 135.640625 60.816406 136.460938 C 60.820312 136.484375 60.824219 136.503906 60.832031 136.523438 C 59.742188 137.046875 58.988281 138.148438 58.988281 139.4375 Z M 58.988281 139.4375 "/></g><g clip-rule="nonzero" clip-path="url(#d593b08988)"><path style=" stroke:none;fill-rule:nonzero;fill:#000000;fill-opacity:1;" d="M 152.597656 223.753906 C 149.816406 223.726562 147.03125 223.621094 144.25 223.777344 L 135.902344 224.070312 L 133.816406 224.144531 C 133.121094 224.175781 132.429688 224.253906 131.734375 224.300781 L 127.574219 224.636719 C 124.800781 224.886719 122.011719 225.027344 119.253906 225.394531 L 110.964844 226.460938 C 108.191406 226.761719 105.460938 227.324219 102.710938 227.761719 C 99.964844 228.242188 97.203125 228.644531 94.484375 229.261719 L 86.300781 230.976562 L 78.183594 232.980469 C 75.472656 233.640625 72.8125 234.492188 70.128906 235.238281 C 67.4375 235.972656 64.800781 236.875 62.140625 237.722656 C 59.472656 238.542969 56.859375 239.511719 54.226562 240.4375 C 51.585938 241.335938 49.007812 242.414062 46.398438 243.398438 C 43.820312 244.46875 41.222656 245.5 38.683594 246.664062 C 36.308594 247.707031 33.976562 248.820312 31.640625 250.015625 C 31.253906 249.714844 30.867188 249.410156 30.464844 249.132812 L 28.675781 248.089844 L 26.828125 247.234375 C 26.210938 246.949219 25.574219 246.742188 24.949219 246.492188 C 24.320312 246.238281 23.683594 246.035156 23.046875 245.832031 C 22.410156 245.632812 21.777344 245.410156 21.128906 245.242188 L 19.199219 244.714844 L 17.257812 244.25 C 15.964844 243.949219 14.664062 243.679688 13.363281 243.429688 C 12.0625 243.175781 10.753906 242.953125 9.445312 242.738281 C 7.25 242.390625 5.050781 242.101562 2.835938 241.855469 L 4.003906 239.433594 L 4.871094 237.625 L 5.609375 235.78125 C 6.5625 233.308594 7.621094 230.871094 8.433594 228.355469 C 9.277344 225.851562 10.210938 223.375 10.980469 220.851562 L 13.34375 213.296875 L 15.554688 205.699219 C 16.3125 203.171875 16.960938 200.613281 17.652344 198.074219 C 19.046875 192.988281 20.304688 187.871094 21.617188 182.765625 C 22.867188 177.644531 24.136719 172.53125 25.328125 167.398438 C 26.550781 162.273438 27.71875 157.136719 28.855469 151.992188 C 29.988281 146.84375 31.097656 141.695312 32.1875 136.542969 C 33.273438 131.386719 34.324219 126.226562 35.324219 121.054688 L 31.753906 136.449219 C 30.546875 141.574219 29.316406 146.695312 28.066406 151.8125 L 24.269531 167.144531 C 23.003906 172.253906 21.660156 177.34375 20.339844 182.441406 C 18.957031 187.519531 17.628906 192.613281 16.164062 197.667969 C 15.429688 200.195312 14.753906 202.738281 13.992188 205.253906 L 11.753906 212.820312 L 9.363281 220.332031 C 8.585938 222.84375 7.648438 225.292969 6.800781 227.777344 C 5.976562 230.273438 4.921875 232.664062 3.96875 235.101562 L 3.234375 236.917969 L 2.378906 238.671875 L 0.683594 242.175781 L 0.101562 243.375 L 1.390625 243.507812 C 3.972656 243.777344 6.574219 244.140625 9.152344 244.558594 C 10.441406 244.777344 11.726562 245.003906 13.007812 245.257812 C 14.285156 245.507812 15.5625 245.78125 16.832031 246.082031 L 18.730469 246.542969 L 20.605469 247.066406 C 21.234375 247.226562 21.84375 247.4375 22.460938 247.628906 C 23.078125 247.824219 23.699219 248.015625 24.292969 248.253906 C 24.890625 248.488281 25.507812 248.6875 26.085938 248.949219 L 27.824219 249.746094 L 29.449219 250.679688 C 29.953125 251.03125 30.417969 251.414062 30.910156 251.773438 L 31.453125 252.175781 L 31.972656 251.902344 C 34.390625 250.640625 36.894531 249.425781 39.417969 248.308594 C 41.929688 247.144531 44.5 246.105469 47.050781 245.035156 C 49.640625 244.042969 52.191406 242.960938 54.8125 242.054688 C 57.421875 241.121094 60.019531 240.144531 62.664062 239.316406 C 65.300781 238.464844 67.921875 237.550781 70.59375 236.8125 C 73.261719 236.058594 75.898438 235.199219 78.589844 234.527344 L 86.640625 232.425781 L 94.757812 230.601562 C 97.457031 229.949219 100.199219 229.507812 102.921875 228.992188 C 105.65625 228.515625 108.371094 227.917969 111.125 227.578125 L 119.371094 226.394531 C 120.742188 226.175781 122.125 226.058594 123.503906 225.921875 L 127.648438 225.488281 L 131.789062 225.054688 C 132.480469 224.988281 133.171875 224.898438 133.859375 224.851562 L 135.941406 224.726562 L 144.261719 224.238281 C 147.03125 224.011719 149.8125 224.070312 152.589844 224.011719 L 160.933594 223.882812 Z M 152.597656 223.753906 "/></g><g style="fill:#000000;fill-opacity:1;"><g transform="translate(69.27115, 192.453815)"><path style="stroke:none" d="M 11.703125 0.34375 C 10.171875 0.34375 8.6875 0.160156 7.25 -0.203125 C 5.820312 -0.578125 4.53125 -1.0625 3.375 -1.65625 C 2.21875 -2.25 1.316406 -2.875 0.671875 -3.53125 L 2.6875 -8.203125 C 3.894531 -7.460938 5.070312 -6.796875 6.21875 -6.203125 C 7.363281 -5.609375 8.578125 -5.140625 9.859375 -4.796875 C 11.148438 -4.460938 12.59375 -4.296875 14.1875 -4.296875 C 14.925781 -4.296875 15.726562 -4.332031 16.59375 -4.40625 C 17.46875 -4.488281 18.347656 -4.628906 19.234375 -4.828125 C 20.117188 -5.035156 20.925781 -5.328125 21.65625 -5.703125 C 22.382812 -6.085938 22.96875 -6.570312 23.40625 -7.15625 C 23.84375 -7.738281 24.0625 -8.457031 24.0625 -9.3125 C 24.0625 -10.113281 23.828125 -10.769531 23.359375 -11.28125 C 22.890625 -11.800781 22.253906 -12.222656 21.453125 -12.546875 C 20.660156 -12.878906 19.769531 -13.144531 18.78125 -13.34375 C 17.800781 -13.539062 16.785156 -13.710938 15.734375 -13.859375 C 14.679688 -14.003906 13.660156 -14.15625 12.671875 -14.3125 C 9.847656 -14.8125 7.613281 -15.492188 5.96875 -16.359375 C 4.320312 -17.234375 3.144531 -18.335938 2.4375 -19.671875 C 1.726562 -21.003906 1.375 -22.59375 1.375 -24.4375 C 1.375 -25.46875 1.585938 -26.535156 2.015625 -27.640625 C 2.441406 -28.753906 3.140625 -29.785156 4.109375 -30.734375 C 5.085938 -31.691406 6.394531 -32.46875 8.03125 -33.0625 C 9.664062 -33.65625 11.691406 -33.953125 14.109375 -33.953125 C 15.273438 -33.953125 16.503906 -33.878906 17.796875 -33.734375 C 19.085938 -33.585938 20.296875 -33.347656 21.421875 -33.015625 C 22.554688 -32.691406 23.472656 -32.25 24.171875 -31.6875 L 22.78125 -26.578125 C 22.132812 -27.054688 21.242188 -27.484375 20.109375 -27.859375 C 18.984375 -28.242188 17.71875 -28.550781 16.3125 -28.78125 C 14.914062 -29.019531 13.5 -29.140625 12.0625 -29.140625 C 10.832031 -29.140625 9.617188 -29.039062 8.421875 -28.84375 C 7.222656 -28.65625 6.132812 -28.359375 5.15625 -27.953125 C 4.1875 -27.554688 3.410156 -27.03125 2.828125 -26.375 C 2.242188 -25.726562 1.953125 -24.945312 1.953125 -24.03125 C 1.953125 -23.269531 2.171875 -22.648438 2.609375 -22.171875 C 3.046875 -21.703125 3.625 -21.34375 4.34375 -21.09375 C 5.070312 -20.851562 5.878906 -20.679688 6.765625 -20.578125 C 7.648438 -20.484375 8.539062 -20.414062 9.4375 -20.375 C 10.332031 -20.34375 11.164062 -20.304688 11.9375 -20.265625 C 14.46875 -20.085938 16.6875 -19.609375 18.59375 -18.828125 C 20.507812 -18.054688 22.003906 -16.957031 23.078125 -15.53125 C 24.160156 -14.113281 24.703125 -12.351562 24.703125 -10.25 C 24.703125 -8.613281 24.34375 -7.140625 23.625 -5.828125 C 22.90625 -4.515625 21.9375 -3.398438 20.71875 -2.484375 C 19.5 -1.566406 18.109375 -0.863281 16.546875 -0.375 C 14.992188 0.101562 13.378906 0.34375 11.703125 0.34375 Z M 11.703125 0.34375 "/></g></g><g style="fill:#000000;fill-opacity:1;"><g transform="translate(97.70096, 192.453815)"><path style="stroke:none" d="M 1.6875 -16.125 L 16.125 -16.125 L 16.125 -15.125 L 1.6875 -15.125 Z M 1.6875 -16.125 "/></g></g><g style="fill:#000000;fill-opacity:1;"><g transform="translate(118.570088, 192.453815)"><path style="stroke:none" d="M 15.5 0.34375 C 13.164062 0.34375 11.113281 -0.128906 9.34375 -1.078125 C 7.570312 -2.035156 6.09375 -3.335938 4.90625 -4.984375 C 3.71875 -6.640625 2.828125 -8.519531 2.234375 -10.625 C 1.640625 -12.726562 1.34375 -14.929688 1.34375 -17.234375 C 1.34375 -19.640625 1.6875 -21.851562 2.375 -23.875 C 3.070312 -25.90625 4.085938 -27.675781 5.421875 -29.1875 C 6.753906 -30.695312 8.367188 -31.867188 10.265625 -32.703125 C 12.160156 -33.535156 14.296875 -33.953125 16.671875 -33.953125 C 17.835938 -33.953125 18.960938 -33.78125 20.046875 -33.4375 C 21.128906 -33.101562 22.097656 -32.664062 22.953125 -32.125 C 23.804688 -31.59375 24.4375 -31.015625 24.84375 -30.390625 L 21.546875 -26.453125 C 20.222656 -28.015625 18.648438 -29.269531 16.828125 -30.21875 C 15.015625 -31.175781 13.160156 -31.65625 11.265625 -31.65625 C 9.734375 -31.65625 8.425781 -31.1875 7.34375 -30.25 C 6.257812 -29.3125 5.429688 -28.015625 4.859375 -26.359375 C 4.285156 -24.710938 4 -22.816406 4 -20.671875 C 4 -18.546875 4.25 -16.519531 4.75 -14.59375 C 5.257812 -12.664062 6.015625 -10.953125 7.015625 -9.453125 C 8.023438 -7.960938 9.265625 -6.785156 10.734375 -5.921875 C 12.203125 -5.066406 13.890625 -4.640625 15.796875 -4.640625 C 17.203125 -4.640625 18.378906 -4.8125 19.328125 -5.15625 C 20.285156 -5.507812 21.039062 -5.898438 21.59375 -6.328125 C 22.144531 -6.765625 22.535156 -7.15625 22.765625 -7.5 C 23.003906 -7.851562 23.125 -8.03125 23.125 -8.03125 L 25.8125 -3.734375 C 25.8125 -3.734375 25.601562 -3.523438 25.1875 -3.109375 C 24.769531 -2.691406 24.132812 -2.21875 23.28125 -1.6875 C 22.4375 -1.164062 21.363281 -0.695312 20.0625 -0.28125 C 18.757812 0.132812 17.238281 0.34375 15.5 0.34375 Z M 15.5 0.34375 "/></g></g><g style="fill:#000000;fill-opacity:1;"><g transform="translate(147.940787, 192.453815)"><path style="stroke:none" d="M 11.15625 0.34375 C 9.40625 0.34375 7.8125 -0.0820312 6.375 -0.9375 C 4.945312 -1.789062 3.804688 -3.082031 2.953125 -4.8125 C 2.109375 -6.550781 1.6875 -8.753906 1.6875 -11.421875 C 1.6875 -14.085938 2.097656 -16.289062 2.921875 -18.03125 C 3.753906 -19.769531 4.878906 -21.0625 6.296875 -21.90625 C 7.722656 -22.757812 9.34375 -23.1875 11.15625 -23.1875 C 12.90625 -23.1875 14.492188 -22.757812 15.921875 -21.90625 C 17.359375 -21.0625 18.507812 -19.769531 19.375 -18.03125 C 20.238281 -16.289062 20.671875 -14.085938 20.671875 -11.421875 C 20.671875 -8.753906 20.242188 -6.550781 19.390625 -4.8125 C 18.535156 -3.082031 17.390625 -1.789062 15.953125 -0.9375 C 14.523438 -0.0820312 12.925781 0.34375 11.15625 0.34375 Z M 8.609375 -22.34375 C 7.710938 -22.125 7.007812 -21.429688 6.5 -20.265625 C 6 -19.097656 5.71875 -17.632812 5.65625 -15.875 C 5.601562 -14.113281 5.8125 -12.226562 6.28125 -10.21875 C 6.75 -8.21875 7.40625 -6.445312 8.25 -4.90625 C 9.09375 -3.363281 10 -2.191406 10.96875 -1.390625 C 11.945312 -0.597656 12.882812 -0.3125 13.78125 -0.53125 C 14.695312 -0.757812 15.40625 -1.457031 15.90625 -2.625 C 16.414062 -3.789062 16.695312 -5.25 16.75 -7 C 16.8125 -8.757812 16.601562 -10.640625 16.125 -12.640625 C 15.769531 -14.140625 15.3125 -15.515625 14.75 -16.765625 C 14.195312 -18.023438 13.570312 -19.101562 12.875 -20 C 12.175781 -20.894531 11.457031 -21.554688 10.71875 -21.984375 C 9.976562 -22.410156 9.273438 -22.53125 8.609375 -22.34375 Z M 8.609375 -22.34375 "/></g></g><g style="fill:#000000;fill-opacity:1;"><g transform="translate(173.346319, 192.453815)"><path style="stroke:none" d="M 0 -20.765625 C 0.832031 -20.878906 1.695312 -21.054688 2.59375 -21.296875 C 3.488281 -21.546875 4.34375 -21.835938 5.15625 -22.171875 C 5.976562 -22.515625 6.679688 -22.851562 7.265625 -23.1875 L 7.265625 -15.96875 C 7.367188 -16.6875 7.628906 -17.457031 8.046875 -18.28125 C 8.460938 -19.113281 9.015625 -19.898438 9.703125 -20.640625 C 10.398438 -21.378906 11.234375 -21.988281 12.203125 -22.46875 C 13.179688 -22.945312 14.28125 -23.1875 15.5 -23.1875 C 15.945312 -23.1875 16.492188 -23.128906 17.140625 -23.015625 C 17.785156 -22.910156 18.421875 -22.660156 19.046875 -22.265625 C 19.679688 -21.867188 20.210938 -21.238281 20.640625 -20.375 C 21.066406 -19.519531 21.28125 -18.332031 21.28125 -16.8125 L 21.28125 -15.96875 C 21.382812 -16.6875 21.644531 -17.457031 22.0625 -18.28125 C 22.476562 -19.113281 23.03125 -19.898438 23.71875 -20.640625 C 24.414062 -21.378906 25.25 -21.988281 26.21875 -22.46875 C 27.195312 -22.945312 28.296875 -23.1875 29.515625 -23.1875 C 29.960938 -23.1875 30.507812 -23.128906 31.15625 -23.015625 C 31.800781 -22.910156 32.4375 -22.660156 33.0625 -22.265625 C 33.695312 -21.867188 34.226562 -21.238281 34.65625 -20.375 C 35.082031 -19.519531 35.296875 -18.332031 35.296875 -16.8125 L 35.296875 0 L 30.421875 0 L 30.421875 -18.484375 C 30.421875 -19.554688 30.164062 -20.351562 29.65625 -20.875 C 29.15625 -21.40625 28.5 -21.671875 27.6875 -21.671875 C 26.789062 -21.671875 25.953125 -21.425781 25.171875 -20.9375 C 24.390625 -20.445312 23.707031 -19.78125 23.125 -18.9375 C 22.539062 -18.09375 22.085938 -17.132812 21.765625 -16.0625 C 21.441406 -14.988281 21.28125 -13.867188 21.28125 -12.703125 L 21.28125 0 L 16.40625 0 L 16.40625 -18.484375 C 16.40625 -19.554688 16.148438 -20.351562 15.640625 -20.875 C 15.140625 -21.40625 14.484375 -21.671875 13.671875 -21.671875 C 12.773438 -21.671875 11.9375 -21.425781 11.15625 -20.9375 C 10.375 -20.445312 9.691406 -19.78125 9.109375 -18.9375 C 8.523438 -18.09375 8.070312 -17.132812 7.75 -16.0625 C 7.425781 -14.988281 7.265625 -13.867188 7.265625 -12.703125 L 7.265625 0 L 2.390625 0 L 2.390625 -18.421875 C 2.390625 -19.335938 2.195312 -19.929688 1.8125 -20.203125 C 1.4375 -20.472656 0.832031 -20.609375 0 -20.609375 Z M 0 -20.765625 "/></g></g><g style="fill:#000000;fill-opacity:1;"><g transform="translate(213.705227, 192.453815)"><path style="stroke:none" d="M 0 -20.765625 C 0.832031 -20.878906 1.695312 -21.054688 2.59375 -21.296875 C 3.488281 -21.546875 4.34375 -21.835938 5.15625 -22.171875 C 5.976562 -22.515625 6.679688 -22.851562 7.265625 -23.1875 L 7.265625 -15.96875 C 7.367188 -16.6875 7.628906 -17.457031 8.046875 -18.28125 C 8.460938 -19.113281 9.015625 -19.898438 9.703125 -20.640625 C 10.398438 -21.378906 11.234375 -21.988281 12.203125 -22.46875 C 13.179688 -22.945312 14.28125 -23.1875 15.5 -23.1875 C 15.945312 -23.1875 16.492188 -23.128906 17.140625 -23.015625 C 17.785156 -22.910156 18.421875 -22.660156 19.046875 -22.265625 C 19.679688 -21.867188 20.210938 -21.238281 20.640625 -20.375 C 21.066406 -19.519531 21.28125 -18.332031 21.28125 -16.8125 L 21.28125 -15.96875 C 21.382812 -16.6875 21.644531 -17.457031 22.0625 -18.28125 C 22.476562 -19.113281 23.03125 -19.898438 23.71875 -20.640625 C 24.414062 -21.378906 25.25 -21.988281 26.21875 -22.46875 C 27.195312 -22.945312 28.296875 -23.1875 29.515625 -23.1875 C 29.960938 -23.1875 30.507812 -23.128906 31.15625 -23.015625 C 31.800781 -22.910156 32.4375 -22.660156 33.0625 -22.265625 C 33.695312 -21.867188 34.226562 -21.238281 34.65625 -20.375 C 35.082031 -19.519531 35.296875 -18.332031 35.296875 -16.8125 L 35.296875 0 L 30.421875 0 L 30.421875 -18.484375 C 30.421875 -19.554688 30.164062 -20.351562 29.65625 -20.875 C 29.15625 -21.40625 28.5 -21.671875 27.6875 -21.671875 C 26.789062 -21.671875 25.953125 -21.425781 25.171875 -20.9375 C 24.390625 -20.445312 23.707031 -19.78125 23.125 -18.9375 C 22.539062 -18.09375 22.085938 -17.132812 21.765625 -16.0625 C 21.441406 -14.988281 21.28125 -13.867188 21.28125 -12.703125 L 21.28125 0 L 16.40625 0 L 16.40625 -18.484375 C 16.40625 -19.554688 16.148438 -20.351562 15.640625 -20.875 C 15.140625 -21.40625 14.484375 -21.671875 13.671875 -21.671875 C 12.773438 -21.671875 11.9375 -21.425781 11.15625 -20.9375 C 10.375 -20.445312 9.691406 -19.78125 9.109375 -18.9375 C 8.523438 -18.09375 8.070312 -17.132812 7.75 -16.0625 C 7.425781 -14.988281 7.265625 -13.867188 7.265625 -12.703125 L 7.265625 0 L 2.390625 0 L 2.390625 -18.421875 C 2.390625 -19.335938 2.195312 -19.929688 1.8125 -20.203125 C 1.4375 -20.472656 0.832031 -20.609375 0 -20.609375 Z M 0 -20.765625 "/></g></g><g style="fill:#000000;fill-opacity:1;"><g transform="translate(254.064134, 192.453815)"><path style="stroke:none" d="M 13.078125 0.34375 C 11.503906 0.34375 10.035156 0.0546875 8.671875 -0.515625 C 7.304688 -1.085938 6.097656 -1.894531 5.046875 -2.9375 C 3.992188 -3.976562 3.171875 -5.191406 2.578125 -6.578125 C 1.984375 -7.972656 1.6875 -9.476562 1.6875 -11.09375 C 1.6875 -12.65625 1.890625 -14.160156 2.296875 -15.609375 C 2.710938 -17.054688 3.359375 -18.347656 4.234375 -19.484375 C 5.109375 -20.628906 6.238281 -21.53125 7.625 -22.1875 C 9.019531 -22.851562 10.691406 -23.1875 12.640625 -23.1875 C 14.296875 -23.1875 15.738281 -22.898438 16.96875 -22.328125 C 18.207031 -21.753906 19.164062 -21.015625 19.84375 -20.109375 C 20.53125 -19.203125 20.875 -18.234375 20.875 -17.203125 C 20.875 -16.203125 20.609375 -15.390625 20.078125 -14.765625 C 19.554688 -14.148438 18.867188 -13.625 18.015625 -13.1875 C 17.160156 -12.75 16.265625 -12.304688 15.328125 -11.859375 C 14.253906 -11.347656 13.1875 -10.820312 12.125 -10.28125 C 11.070312 -9.75 10.117188 -9.257812 9.265625 -8.8125 C 8.421875 -8.363281 7.753906 -8.003906 7.265625 -7.734375 C 8.109375 -6.628906 9.15625 -5.753906 10.40625 -5.109375 C 11.664062 -4.460938 13.082031 -4.140625 14.65625 -4.140625 C 15.90625 -4.140625 17.109375 -4.394531 18.265625 -4.90625 C 19.421875 -5.425781 20.320312 -6.097656 20.96875 -6.921875 L 21.140625 -6.921875 L 19.21875 -0.90625 C 18.320312 -0.457031 17.34375 -0.140625 16.28125 0.046875 C 15.21875 0.242188 14.148438 0.34375 13.078125 0.34375 Z M 10.15625 -22.21875 C 8.914062 -22.21875 7.898438 -21.890625 7.109375 -21.234375 C 6.316406 -20.585938 5.734375 -19.757812 5.359375 -18.75 C 4.992188 -17.738281 4.8125 -16.6875 4.8125 -15.59375 C 4.8125 -12.675781 5.535156 -10.175781 6.984375 -8.09375 C 7.390625 -8.320312 7.957031 -8.664062 8.6875 -9.125 C 9.414062 -9.582031 10.191406 -10.117188 11.015625 -10.734375 C 11.847656 -11.347656 12.644531 -12.015625 13.40625 -12.734375 C 14.164062 -13.453125 14.785156 -14.191406 15.265625 -14.953125 C 15.753906 -15.710938 16 -16.460938 16 -17.203125 C 16 -17.648438 15.914062 -18.160156 15.75 -18.734375 C 15.582031 -19.304688 15.285156 -19.851562 14.859375 -20.375 C 14.429688 -20.90625 13.835938 -21.34375 13.078125 -21.6875 C 12.316406 -22.039062 11.34375 -22.21875 10.15625 -22.21875 Z M 10.15625 -22.21875 "/></g></g><g style="fill:#000000;fill-opacity:1;"><g transform="translate(278.932024, 192.453815)"><path style="stroke:none" d="M 0 -20.765625 C 0.832031 -20.878906 1.695312 -21.054688 2.59375 -21.296875 C 3.488281 -21.546875 4.34375 -21.835938 5.15625 -22.171875 C 5.976562 -22.515625 6.679688 -22.851562 7.265625 -23.1875 L 7.265625 -15.96875 C 7.441406 -16.75 7.710938 -17.554688 8.078125 -18.390625 C 8.453125 -19.234375 8.9375 -20.019531 9.53125 -20.75 C 10.125 -21.476562 10.832031 -22.066406 11.65625 -22.515625 C 12.488281 -22.960938 13.453125 -23.1875 14.546875 -23.1875 C 15.921875 -23.1875 17.066406 -22.90625 17.984375 -22.34375 L 16.203125 -17.953125 C 15.617188 -18.242188 15.007812 -18.492188 14.375 -18.703125 C 13.75 -18.910156 13.054688 -19.015625 12.296875 -19.015625 C 11.421875 -19.015625 10.601562 -18.785156 9.84375 -18.328125 C 9.082031 -17.867188 8.460938 -17.207031 7.984375 -16.34375 C 7.503906 -15.488281 7.265625 -14.453125 7.265625 -13.234375 L 7.265625 0 L 2.390625 0 L 2.390625 -18.421875 C 2.390625 -19.335938 2.195312 -19.929688 1.8125 -20.203125 C 1.4375 -20.472656 0.832031 -20.609375 0 -20.609375 Z M 0 -20.765625 "/></g></g><g style="fill:#000000;fill-opacity:1;"><g transform="translate(300.641224, 192.453815)"><path style="stroke:none" d="M 13.078125 0.34375 C 11.503906 0.34375 10.035156 0.0546875 8.671875 -0.515625 C 7.304688 -1.085938 6.097656 -1.882812 5.046875 -2.90625 C 3.992188 -3.925781 3.171875 -5.117188 2.578125 -6.484375 C 1.984375 -7.847656 1.6875 -9.328125 1.6875 -10.921875 C 1.6875 -12.460938 1.921875 -13.945312 2.390625 -15.375 C 2.859375 -16.800781 3.535156 -18.070312 4.421875 -19.1875 C 5.304688 -20.3125 6.382812 -21.203125 7.65625 -21.859375 C 8.9375 -22.523438 10.394531 -22.859375 12.03125 -22.859375 C 14.289062 -22.859375 16.234375 -22.363281 17.859375 -21.375 C 19.484375 -20.382812 20.789062 -18.796875 21.78125 -16.609375 L 17.640625 -14.421875 C 17.148438 -15.671875 16.5625 -16.867188 15.875 -18.015625 C 15.195312 -19.160156 14.375 -20.085938 13.40625 -20.796875 C 12.445312 -21.515625 11.285156 -21.875 9.921875 -21.875 C 8.773438 -21.875 7.828125 -21.554688 7.078125 -20.921875 C 6.328125 -20.285156 5.757812 -19.46875 5.375 -18.46875 C 5 -17.46875 4.8125 -16.429688 4.8125 -15.359375 C 4.8125 -13.296875 5.207031 -11.40625 6 -9.6875 C 6.789062 -7.976562 7.921875 -6.613281 9.390625 -5.59375 C 10.859375 -4.570312 12.613281 -4.0625 14.65625 -4.0625 C 15.90625 -4.0625 17.109375 -4.3125 18.265625 -4.8125 C 19.421875 -5.320312 20.320312 -5.992188 20.96875 -6.828125 L 21.140625 -6.828125 L 19.21875 -0.875 C 18.320312 -0.445312 17.34375 -0.140625 16.28125 0.046875 C 15.21875 0.242188 14.148438 0.34375 13.078125 0.34375 Z M 13.078125 0.34375 "/></g></g><g style="fill:#000000;fill-opacity:1;"><g transform="translate(326.147586, 192.453815)"><path style="stroke:none" d="M 13.078125 0.34375 C 11.503906 0.34375 10.035156 0.0546875 8.671875 -0.515625 C 7.304688 -1.085938 6.097656 -1.894531 5.046875 -2.9375 C 3.992188 -3.976562 3.171875 -5.191406 2.578125 -6.578125 C 1.984375 -7.972656 1.6875 -9.476562 1.6875 -11.09375 C 1.6875 -12.65625 1.890625 -14.160156 2.296875 -15.609375 C 2.710938 -17.054688 3.359375 -18.347656 4.234375 -19.484375 C 5.109375 -20.628906 6.238281 -21.53125 7.625 -22.1875 C 9.019531 -22.851562 10.691406 -23.1875 12.640625 -23.1875 C 14.296875 -23.1875 15.738281 -22.898438 16.96875 -22.328125 C 18.207031 -21.753906 19.164062 -21.015625 19.84375 -20.109375 C 20.53125 -19.203125 20.875 -18.234375 20.875 -17.203125 C 20.875 -16.203125 20.609375 -15.390625 20.078125 -14.765625 C 19.554688 -14.148438 18.867188 -13.625 18.015625 -13.1875 C 17.160156 -12.75 16.265625 -12.304688 15.328125 -11.859375 C 14.253906 -11.347656 13.1875 -10.820312 12.125 -10.28125 C 11.070312 -9.75 10.117188 -9.257812 9.265625 -8.8125 C 8.421875 -8.363281 7.753906 -8.003906 7.265625 -7.734375 C 8.109375 -6.628906 9.15625 -5.753906 10.40625 -5.109375 C 11.664062 -4.460938 13.082031 -4.140625 14.65625 -4.140625 C 15.90625 -4.140625 17.109375 -4.394531 18.265625 -4.90625 C 19.421875 -5.425781 20.320312 -6.097656 20.96875 -6.921875 L 21.140625 -6.921875 L 19.21875 -0.90625 C 18.320312 -0.457031 17.34375 -0.140625 16.28125 0.046875 C 15.21875 0.242188 14.148438 0.34375 13.078125 0.34375 Z M 10.15625 -22.21875 C 8.914062 -22.21875 7.898438 -21.890625 7.109375 -21.234375 C 6.316406 -20.585938 5.734375 -19.757812 5.359375 -18.75 C 4.992188 -17.738281 4.8125 -16.6875 4.8125 -15.59375 C 4.8125 -12.675781 5.535156 -10.175781 6.984375 -8.09375 C 7.390625 -8.320312 7.957031 -8.664062 8.6875 -9.125 C 9.414062 -9.582031 10.191406 -10.117188 11.015625 -10.734375 C 11.847656 -11.347656 12.644531 -12.015625 13.40625 -12.734375 C 14.164062 -13.453125 14.785156 -14.191406 15.265625 -14.953125 C 15.753906 -15.710938 16 -16.460938 16 -17.203125 C 16 -17.648438 15.914062 -18.160156 15.75 -18.734375 C 15.582031 -19.304688 15.285156 -19.851562 14.859375 -20.375 C 14.429688 -20.90625 13.835938 -21.34375 13.078125 -21.6875 C 12.316406 -22.039062 11.34375 -22.21875 10.15625 -22.21875 Z M 10.15625 -22.21875 "/></g></g><g style="fill:#000000;fill-opacity:1;"><g transform="translate(143.04726, 222.751674)"><path style="stroke:none" d="M 9.640625 -12.609375 L 9.640625 -11.140625 L 5.796875 -11.140625 L 5.796875 0 L 4.21875 0 L 4.21875 -11.140625 L 0.375 -11.140625 L 0.375 -12.609375 Z M 9.640625 -12.609375 "/></g></g><g style="fill:#000000;fill-opacity:1;"><g transform="translate(157.786873, 222.751674)"><path style="stroke:none" d="M 9.84375 -12.609375 L 11.40625 -12.609375 L 11.40625 0 L 9.84375 0 L 9.84375 -5.734375 L 3.296875 -5.734375 L 3.296875 0 L 1.734375 0 L 1.734375 -12.609375 L 3.296875 -12.609375 L 3.296875 -7.25 L 9.84375 -7.25 Z M 9.84375 -12.609375 "/></g></g><g style="fill:#000000;fill-opacity:1;"><g transform="translate(175.642972, 222.751674)"><path style="stroke:none" d="M 3.296875 -1.515625 L 9.0625 -1.515625 L 9.0625 0 L 1.734375 0 L 1.734375 -12.609375 L 8.859375 -12.609375 L 8.859375 -11.109375 L 3.296875 -11.109375 L 3.296875 -7.203125 L 8.390625 -7.203125 L 8.390625 -5.75 L 3.296875 -5.75 Z M 3.296875 -1.515625 "/></g></g><g style="fill:#000000;fill-opacity:1;"><g transform="translate(190.328553, 222.751674)"><path style="stroke:none" d=""/></g></g><g style="fill:#000000;fill-opacity:1;"><g transform="translate(199.771951, 222.751674)"><path style="stroke:none" d="M 7.453125 0.21875 C 6.503906 0.21875 5.628906 0.0507812 4.828125 -0.28125 C 4.023438 -0.613281 3.328125 -1.070312 2.734375 -1.65625 C 2.140625 -2.25 1.675781 -2.9375 1.34375 -3.71875 C 1.019531 -4.507812 0.859375 -5.375 0.859375 -6.3125 C 0.859375 -7.226562 1.019531 -8.082031 1.34375 -8.875 C 1.675781 -9.675781 2.140625 -10.367188 2.734375 -10.953125 C 3.328125 -11.546875 4.023438 -12.003906 4.828125 -12.328125 C 5.628906 -12.660156 6.503906 -12.828125 7.453125 -12.828125 C 8.421875 -12.828125 9.304688 -12.660156 10.109375 -12.328125 C 10.910156 -12.003906 11.601562 -11.546875 12.1875 -10.953125 C 12.78125 -10.367188 13.238281 -9.679688 13.5625 -8.890625 C 13.894531 -8.097656 14.0625 -7.238281 14.0625 -6.3125 C 14.0625 -5.375 13.894531 -4.503906 13.5625 -3.703125 C 13.238281 -2.910156 12.78125 -2.222656 12.1875 -1.640625 C 11.601562 -1.066406 10.910156 -0.613281 10.109375 -0.28125 C 9.304688 0.0507812 8.421875 0.21875 7.453125 0.21875 Z M 7.453125 -1.328125 C 8.421875 -1.328125 9.28125 -1.539062 10.03125 -1.96875 C 10.78125 -2.40625 11.367188 -3 11.796875 -3.75 C 12.234375 -4.5 12.453125 -5.351562 12.453125 -6.3125 C 12.453125 -7.257812 12.234375 -8.109375 11.796875 -8.859375 C 11.367188 -9.609375 10.78125 -10.195312 10.03125 -10.625 C 9.28125 -11.0625 8.421875 -11.28125 7.453125 -11.28125 C 6.503906 -11.28125 5.65625 -11.0625 4.90625 -10.625 C 4.15625 -10.1875 3.5625 -9.585938 3.125 -8.828125 C 2.695312 -8.078125 2.484375 -7.238281 2.484375 -6.3125 C 2.484375 -5.351562 2.695312 -4.5 3.125 -3.75 C 3.5625 -3.007812 4.15625 -2.421875 4.90625 -1.984375 C 5.65625 -1.546875 6.503906 -1.328125 7.453125 -1.328125 Z M 7.453125 -1.328125 "/></g></g><g style="fill:#000000;fill-opacity:1;"><g transform="translate(219.429477, 222.751674)"><path style="stroke:none" d="M 10.234375 -12.609375 L 11.78125 -12.609375 L 11.78125 0 L 10.453125 0 L 3.265625 -9.84375 L 3.265625 0 L 1.734375 0 L 1.734375 -12.609375 L 3.15625 -12.609375 L 10.234375 -2.875 Z M 10.234375 -12.609375 "/></g></g><g style="fill:#000000;fill-opacity:1;"><g transform="translate(237.645868, 222.751674)"><path style="stroke:none" d="M 3.296875 -1.484375 L 8.84375 -1.484375 L 8.84375 0 L 1.734375 0 L 1.734375 -12.609375 L 3.296875 -12.609375 Z M 3.296875 -1.484375 "/></g></g><g style="fill:#000000;fill-opacity:1;"><g transform="translate(251.592855, 222.751674)"><path style="stroke:none" d="M 1.734375 0 L 1.734375 -12.609375 L 3.296875 -12.609375 L 3.296875 0 Z M 1.734375 0 "/></g></g><g style="fill:#000000;fill-opacity:1;"><g transform="translate(261.342497, 222.751674)"><path style="stroke:none" d="M 10.234375 -12.609375 L 11.78125 -12.609375 L 11.78125 0 L 10.453125 0 L 3.265625 -9.84375 L 3.265625 0 L 1.734375 0 L 1.734375 -12.609375 L 3.15625 -12.609375 L 10.234375 -2.875 Z M 10.234375 -12.609375 "/></g></g><g style="fill:#000000;fill-opacity:1;"><g transform="translate(279.558888, 222.751674)"><path style="stroke:none" d="M 3.296875 -1.515625 L 9.0625 -1.515625 L 9.0625 0 L 1.734375 0 L 1.734375 -12.609375 L 8.859375 -12.609375 L 8.859375 -11.109375 L 3.296875 -11.109375 L 3.296875 -7.203125 L 8.390625 -7.203125 L 8.390625 -5.75 L 3.296875 -5.75 Z M 3.296875 -1.515625 "/></g></g><g style="fill:#000000;fill-opacity:1;"><g transform="translate(294.244468, 222.751674)"><path style="stroke:none" d=""/></g></g><g style="fill:#000000;fill-opacity:1;"><g transform="translate(303.687867, 222.751674)"><path style="stroke:none" d="M 5.484375 0.15625 C 4.554688 0.15625 3.742188 -0.00390625 3.046875 -0.328125 C 2.347656 -0.660156 1.800781 -1.128906 1.40625 -1.734375 C 1.019531 -2.335938 0.828125 -3.054688 0.828125 -3.890625 L 2.4375 -3.890625 C 2.4375 -3.097656 2.722656 -2.484375 3.296875 -2.046875 C 3.867188 -1.609375 4.585938 -1.390625 5.453125 -1.390625 C 5.984375 -1.390625 6.460938 -1.472656 6.890625 -1.640625 C 7.328125 -1.816406 7.671875 -2.070312 7.921875 -2.40625 C 8.179688 -2.738281 8.3125 -3.125 8.3125 -3.5625 C 8.3125 -4.0625 8.160156 -4.441406 7.859375 -4.703125 C 7.566406 -4.972656 7.179688 -5.1875 6.703125 -5.34375 C 6.222656 -5.5 5.710938 -5.640625 5.171875 -5.765625 C 4.679688 -5.878906 4.191406 -6.007812 3.703125 -6.15625 C 3.222656 -6.300781 2.78125 -6.492188 2.375 -6.734375 C 1.976562 -6.984375 1.660156 -7.3125 1.421875 -7.71875 C 1.179688 -8.125 1.0625 -8.640625 1.0625 -9.265625 C 1.0625 -10.359375 1.453125 -11.210938 2.234375 -11.828125 C 3.015625 -12.453125 4.050781 -12.765625 5.34375 -12.765625 C 6.65625 -12.765625 7.6875 -12.425781 8.4375 -11.75 C 9.1875 -11.082031 9.5625 -10.179688 9.5625 -9.046875 L 8 -9.046875 C 8 -9.742188 7.742188 -10.285156 7.234375 -10.671875 C 6.734375 -11.066406 6.097656 -11.265625 5.328125 -11.265625 C 4.554688 -11.265625 3.914062 -11.09375 3.40625 -10.75 C 2.894531 -10.40625 2.640625 -9.929688 2.640625 -9.328125 C 2.640625 -8.859375 2.785156 -8.492188 3.078125 -8.234375 C 3.367188 -7.984375 3.742188 -7.78125 4.203125 -7.625 C 4.671875 -7.476562 5.175781 -7.34375 5.71875 -7.21875 C 6.207031 -7.101562 6.695312 -6.96875 7.1875 -6.8125 C 7.6875 -6.65625 8.144531 -6.445312 8.5625 -6.1875 C 8.976562 -5.9375 9.304688 -5.601562 9.546875 -5.1875 C 9.796875 -4.769531 9.921875 -4.234375 9.921875 -3.578125 C 9.921875 -2.785156 9.722656 -2.109375 9.328125 -1.546875 C 8.941406 -0.992188 8.410156 -0.570312 7.734375 -0.28125 C 7.066406 0.0078125 6.316406 0.15625 5.484375 0.15625 Z M 5.484375 0.15625 "/></g></g><g style="fill:#000000;fill-opacity:1;"><g transform="translate(319.166073, 222.751674)"><path style="stroke:none" d="M 9.84375 -12.609375 L 11.40625 -12.609375 L 11.40625 0 L 9.84375 0 L 9.84375 -5.734375 L 3.296875 -5.734375 L 3.296875 0 L 1.734375 0 L 1.734375 -12.609375 L 3.296875 -12.609375 L 3.296875 -7.25 L 9.84375 -7.25 Z M 9.84375 -12.609375 "/></g></g><g style="fill:#000000;fill-opacity:1;"><g transform="translate(337.022172, 222.751674)"><path style="stroke:none" d="M 7.453125 0.21875 C 6.503906 0.21875 5.628906 0.0507812 4.828125 -0.28125 C 4.023438 -0.613281 3.328125 -1.070312 2.734375 -1.65625 C 2.140625 -2.25 1.675781 -2.9375 1.34375 -3.71875 C 1.019531 -4.507812 0.859375 -5.375 0.859375 -6.3125 C 0.859375 -7.226562 1.019531 -8.082031 1.34375 -8.875 C 1.675781 -9.675781 2.140625 -10.367188 2.734375 -10.953125 C 3.328125 -11.546875 4.023438 -12.003906 4.828125 -12.328125 C 5.628906 -12.660156 6.503906 -12.828125 7.453125 -12.828125 C 8.421875 -12.828125 9.304688 -12.660156 10.109375 -12.328125 C 10.910156 -12.003906 11.601562 -11.546875 12.1875 -10.953125 C 12.78125 -10.367188 13.238281 -9.679688 13.5625 -8.890625 C 13.894531 -8.097656 14.0625 -7.238281 14.0625 -6.3125 C 14.0625 -5.375 13.894531 -4.503906 13.5625 -3.703125 C 13.238281 -2.910156 12.78125 -2.222656 12.1875 -1.640625 C 11.601562 -1.066406 10.910156 -0.613281 10.109375 -0.28125 C 9.304688 0.0507812 8.421875 0.21875 7.453125 0.21875 Z M 7.453125 -1.328125 C 8.421875 -1.328125 9.28125 -1.539062 10.03125 -1.96875 C 10.78125 -2.40625 11.367188 -3 11.796875 -3.75 C 12.234375 -4.5 12.453125 -5.351562 12.453125 -6.3125 C 12.453125 -7.257812 12.234375 -8.109375 11.796875 -8.859375 C 11.367188 -9.609375 10.78125 -10.195312 10.03125 -10.625 C 9.28125 -11.0625 8.421875 -11.28125 7.453125 -11.28125 C 6.503906 -11.28125 5.65625 -11.0625 4.90625 -10.625 C 4.15625 -10.1875 3.5625 -9.585938 3.125 -8.828125 C 2.695312 -8.078125 2.484375 -7.238281 2.484375 -6.3125 C 2.484375 -5.351562 2.695312 -4.5 3.125 -3.75 C 3.5625 -3.007812 4.15625 -2.421875 4.90625 -1.984375 C 5.65625 -1.546875 6.503906 -1.328125 7.453125 -1.328125 Z M 7.453125 -1.328125 "/></g></g><g style="fill:#000000;fill-opacity:1;"><g transform="translate(356.679698, 222.751674)"><path style="stroke:none" d="M 6.25 -12.609375 C 7.039062 -12.609375 7.75 -12.429688 8.375 -12.078125 C 9.007812 -11.734375 9.507812 -11.253906 9.875 -10.640625 C 10.25 -10.035156 10.4375 -9.347656 10.4375 -8.578125 C 10.4375 -7.804688 10.25 -7.113281 9.875 -6.5 C 9.507812 -5.882812 9.007812 -5.40625 8.375 -5.0625 C 7.75 -4.71875 7.039062 -4.546875 6.25 -4.546875 L 3.296875 -4.546875 L 3.296875 0 L 1.734375 0 L 1.734375 -12.609375 Z M 6.15625 -6.078125 C 6.925781 -6.078125 7.5625 -6.3125 8.0625 -6.78125 C 8.5625 -7.257812 8.8125 -7.859375 8.8125 -8.578125 C 8.8125 -9.296875 8.5625 -9.890625 8.0625 -10.359375 C 7.5625 -10.835938 6.925781 -11.078125 6.15625 -11.078125 L 3.296875 -11.078125 L 3.296875 -6.078125 Z M 6.15625 -6.078125 "/></g></g></g></svg>